<svg id="behance-2161" xmlns="http://www.w3.org/2000/svg" width="23.981" height="23.981" viewBox="0 0 23.981 23.981">
  <path id="Path_6346" data-name="Path 6346" d="M152.824,116.649a1.23,1.23,0,0,0-.926.341,1.6,1.6,0,0,0-.414.919h2.675a1.3,1.3,0,0,0-.415-.938A1.354,1.354,0,0,0,152.824,116.649Z" transform="translate(-137.12 -105.587)" fill="#fff"/>
  <path id="Path_6347" data-name="Path 6347" d="M78.995,99.543a.783.783,0,0,0,.336-.729.742.742,0,0,0-.445-.765,3.132,3.132,0,0,0-.978-.13H76.365v1.829h1.754A1.662,1.662,0,0,0,78.995,99.543Z" transform="translate(-69.123 -88.635)" fill="#fff"/>
  <path id="Path_6348" data-name="Path 6348" d="M78.97,131.82a2.073,2.073,0,0,0-.829-.14H76.362v2.209h1.752a1.946,1.946,0,0,0,.84-.146,1.045,1.045,0,0,0,.544-1.035A.889.889,0,0,0,78.97,131.82Z" transform="translate(-69.121 -119.193)" fill="#fff"/>
  <path id="Path_6349" data-name="Path 6349" d="M11.991,0A11.991,11.991,0,1,0,23.981,11.991,11.991,11.991,0,0,0,11.991,0Zm2.032,8.19h3.338v.829H14.022Zm-2.268,6.767a2.292,2.292,0,0,1-.586.651,2.266,2.266,0,0,1-.936.416,5.791,5.791,0,0,1-1.171.112H5.329V7.846h4a2.546,2.546,0,0,1,2.147.883,2.11,2.11,0,0,1,.379,1.266,1.844,1.844,0,0,1-.383,1.22,1.954,1.954,0,0,1-.631.472,1.841,1.841,0,0,1,.956.732,2.193,2.193,0,0,1,.323,1.214A2.419,2.419,0,0,1,11.755,14.956Zm6.9-1.611H14.327a1.419,1.419,0,0,0,.621,1.253,1.563,1.563,0,0,0,.856.223,1.206,1.206,0,0,0,1.18-.68h1.585a1.931,1.931,0,0,1-.575,1.073,2.884,2.884,0,0,1-2.233.867,3.24,3.24,0,0,1-2.092-.731,2.886,2.886,0,0,1-.905-2.379A3.216,3.216,0,0,1,13.58,10.6,2.863,2.863,0,0,1,15.7,9.781a3.384,3.384,0,0,1,1.4.278,2.406,2.406,0,0,1,1.025.879,2.929,2.929,0,0,1,.474,1.228A7.767,7.767,0,0,1,18.651,13.345Z" fill="#fff"/>
</svg>
