<svg xmlns="http://www.w3.org/2000/svg" width="90.288" height="35.424" viewBox="0 0 90.288 35.424">
  <path id="Dosis" d="M5.088,49a1.57,1.57,0,0,1-1.032-.336,1.069,1.069,0,0,1-.408-.864V15.064a1.022,1.022,0,0,1,.408-.816,1.57,1.57,0,0,1,1.032-.336h8.5A12.512,12.512,0,0,1,18.7,14.92a7.718,7.718,0,0,1,3.6,3.264,11.717,11.717,0,0,1,1.32,5.952V38.728a11.828,11.828,0,0,1-1.32,6,7.718,7.718,0,0,1-3.6,3.264A12.512,12.512,0,0,1,13.584,49Zm1.728-2.928h6.768a6.918,6.918,0,0,0,5.04-1.776q1.824-1.776,1.824-5.568V24.136q0-3.744-1.824-5.52a6.918,6.918,0,0,0-5.04-1.776H6.816Zm31.3,3.264A8.437,8.437,0,0,1,33.6,48.064a10,10,0,0,1-3.336-3.36,8.476,8.476,0,0,1-1.272-4.488V34.984a8.351,8.351,0,0,1,1.248-4.44,9.72,9.72,0,0,1,3.312-3.288,8.645,8.645,0,0,1,4.56-1.248,8.812,8.812,0,0,1,4.536,1.224,9.519,9.519,0,0,1,3.336,3.24,8.4,8.4,0,0,1,1.248,4.512v5.232a8.639,8.639,0,0,1-1.248,4.464,9.653,9.653,0,0,1-3.336,3.384A8.559,8.559,0,0,1,38.112,49.336Zm0-2.88a5.364,5.364,0,0,0,3.024-.888A6.708,6.708,0,0,0,43.3,43.24a6.046,6.046,0,0,0,.816-3.024V34.984a5.835,5.835,0,0,0-.792-2.928,6.544,6.544,0,0,0-2.16-2.28,5.479,5.479,0,0,0-3.048-.888,5.364,5.364,0,0,0-3.024.888,6.848,6.848,0,0,0-2.16,2.28,5.7,5.7,0,0,0-.816,2.928v5.232a6.046,6.046,0,0,0,.816,3.024,6.627,6.627,0,0,0,2.184,2.328A5.4,5.4,0,0,0,38.112,46.456Zm20.448,2.88a12.147,12.147,0,0,1-3.936-.576,8.448,8.448,0,0,1-2.64-1.368,2.126,2.126,0,0,1-.96-1.512,1.53,1.53,0,0,1,.144-.648,1.708,1.708,0,0,1,.408-.552.815.815,0,0,1,.552-.24,1.906,1.906,0,0,1,1.176.552,8.867,8.867,0,0,0,1.824,1.128,7.762,7.762,0,0,0,3.336.576,5.6,5.6,0,0,0,3.84-1.032,3.168,3.168,0,0,0,1.1-2.376,3.454,3.454,0,0,0-.84-2.472,5.681,5.681,0,0,0-2.208-1.392q-1.368-.5-2.88-.912a17.147,17.147,0,0,1-2.88-1.056,5.692,5.692,0,0,1-2.208-1.8,5.192,5.192,0,0,1-.84-3.12,6.671,6.671,0,0,1,.768-3.048,6.142,6.142,0,0,1,2.424-2.5,8.545,8.545,0,0,1,4.392-.984,13.9,13.9,0,0,1,3.072.336,8.472,8.472,0,0,1,2.424.888q.936.552.936,1.128a1.656,1.656,0,0,1-.168.624,2.493,2.493,0,0,1-.456.7.888.888,0,0,1-.672.312,2.328,2.328,0,0,1-1.032-.36,8.833,8.833,0,0,0-1.656-.672,8.165,8.165,0,0,0-2.4-.312,5.436,5.436,0,0,0-2.784.624,4.119,4.119,0,0,0-1.536,1.464,3.322,3.322,0,0,0-.48,1.656,2.592,2.592,0,0,0,.864,2.112A6.824,6.824,0,0,0,57.48,35.68q1.368.456,2.88.864a13.987,13.987,0,0,1,2.88,1.128,5.818,5.818,0,0,1,2.208,2.016,6.278,6.278,0,0,1,.84,3.456,5.571,5.571,0,0,1-2.016,4.512A8.686,8.686,0,0,1,58.56,49.336Zm13.968-29.76a2.072,2.072,0,0,1-1.488-.6,1.9,1.9,0,0,1-.624-1.416,1.826,1.826,0,0,1,.624-1.392,2.21,2.21,0,0,1,2.976,0,1.826,1.826,0,0,1,.624,1.392,1.9,1.9,0,0,1-.624,1.416A2.072,2.072,0,0,1,72.528,19.576ZM72.48,49a1.623,1.623,0,0,1-1.08-.384,1.117,1.117,0,0,1-.456-.864v-20.3a.969.969,0,0,1,.456-.84,1.866,1.866,0,0,1,1.08-.312,1.951,1.951,0,0,1,1.128.312.969.969,0,0,1,.456.84v20.3a1.117,1.117,0,0,1-.456.864A1.691,1.691,0,0,1,72.48,49Zm13.728.336a12.147,12.147,0,0,1-3.936-.576,8.448,8.448,0,0,1-2.64-1.368,2.126,2.126,0,0,1-.96-1.512,1.53,1.53,0,0,1,.144-.648,1.708,1.708,0,0,1,.408-.552.815.815,0,0,1,.552-.24,1.906,1.906,0,0,1,1.176.552,8.867,8.867,0,0,0,1.824,1.128,7.762,7.762,0,0,0,3.336.576,5.6,5.6,0,0,0,3.84-1.032,3.168,3.168,0,0,0,1.1-2.376,3.454,3.454,0,0,0-.84-2.472,5.682,5.682,0,0,0-2.208-1.392q-1.368-.5-2.88-.912a17.147,17.147,0,0,1-2.88-1.056,5.692,5.692,0,0,1-2.208-1.8,5.192,5.192,0,0,1-.84-3.12,6.671,6.671,0,0,1,.768-3.048,6.142,6.142,0,0,1,2.424-2.5,8.545,8.545,0,0,1,4.392-.984,13.9,13.9,0,0,1,3.072.336,8.472,8.472,0,0,1,2.424.888q.936.552.936,1.128a1.656,1.656,0,0,1-.168.624,2.493,2.493,0,0,1-.456.7.888.888,0,0,1-.672.312,2.328,2.328,0,0,1-1.032-.36,8.833,8.833,0,0,0-1.656-.672,8.165,8.165,0,0,0-2.4-.312,5.436,5.436,0,0,0-2.784.624,4.119,4.119,0,0,0-1.536,1.464,3.322,3.322,0,0,0-.48,1.656A2.592,2.592,0,0,0,82.9,34.5a6.824,6.824,0,0,0,2.232,1.176q1.368.456,2.88.864a13.987,13.987,0,0,1,2.88,1.128A5.818,5.818,0,0,1,93.1,39.688a6.278,6.278,0,0,1,.84,3.456,5.571,5.571,0,0,1-2.016,4.512A8.686,8.686,0,0,1,86.208,49.336Z" transform="translate(-3.648 -13.912)" fill="#707070"/>
</svg>
