<svg id="linkedin-logo-black-sqaure-15921" xmlns="http://www.w3.org/2000/svg" width="20.48" height="20.48" viewBox="0 0 20.48 20.48">
  <rect id="Rectangle_27" data-name="Rectangle 27" width="18.696" height="18.696" transform="translate(0.844 0.779)" fill="#fff"/>
  <rect id="Rectangle_2" data-name="Rectangle 2" width="2.36" height="7.587" transform="translate(4.738 8.333)" fill="#223c50"/>
  <path id="Path_6351" data-name="Path 6351" d="M57.566,59.058a1.367,1.367,0,1,1,1.367-1.367A1.367,1.367,0,0,1,57.566,59.058Z" transform="translate(-51.649 -51.762)" fill="#223c50"/>
  <path id="Path_6352" data-name="Path 6352" d="M113.251,108.347h-2.357v-3.689c0-.88-.015-2.012-1.225-2.012-1.227,0-1.414.959-1.414,1.948v3.753H105.9v-7.587h2.262V101.8h.032a2.477,2.477,0,0,1,2.231-1.225c2.388,0,2.829,1.571,2.829,3.614Z" transform="translate(-97.322 -92.428)" fill="#223c50"/>
  <path id="Path_6356" data-name="Path 6356" d="M17.97,20.481H2.511A2.514,2.514,0,0,1,0,17.97V2.511A2.514,2.514,0,0,1,2.511,0H17.97a2.514,2.514,0,0,1,2.511,2.511V17.97A2.514,2.514,0,0,1,17.97,20.481ZM2.511,1.365A1.147,1.147,0,0,0,1.365,2.511V17.97a1.147,1.147,0,0,0,1.146,1.146H17.97a1.147,1.147,0,0,0,1.146-1.146V2.511A1.147,1.147,0,0,0,17.97,1.365Z" transform="translate(0 0)" fill="#fff"/>
</svg>
