<svg xmlns="http://www.w3.org/2000/svg" width="39.416" height="33.998" viewBox="0 0 39.416 33.998">
  <g id="logo" transform="translate(-0.556 -4.002)">
    <path id="Subtraction_17" data-name="Subtraction 17" d="M5420.006,22274a16.51,16.51,0,0,1-2.309-.156h-.005l-.047-.006h0a.143.143,0,0,1-.047-.008l0,0a.042.042,0,0,1-.014,0,.088.088,0,0,0-.023,0,.051.051,0,0,1-.023,0l-.032,0a.06.06,0,0,0-.019,0,.127.127,0,0,0-.027,0l-.033-.01-.016,0a16.867,16.867,0,0,1-6.585-2.494,17.627,17.627,0,0,1-2.84-2.291,17.015,17.015,0,0,1-3.477-5.02h4.55a12.991,12.991,0,0,0,22.942-2h-9.369l5.506-4h8.838A17,17,0,0,1,5420.006,22274Zm-10.954-24H5404.5c.117-.258.235-.5.35-.732.005,0,.005,0,.005-.006l0-.008a.115.115,0,0,1,.018-.031,15.6,15.6,0,0,1,.833-1.441.078.078,0,0,0,.008-.014.106.106,0,0,0,.014-.025l.006,0,0-.008a17.1,17.1,0,0,1,2.236-2.756c.295-.295.6-.582.917-.85a17.019,17.019,0,0,1,7.217-3.684,17.291,17.291,0,0,1,6.719-.207h.005l.036.006a.2.2,0,0,1,.036,0,17.058,17.058,0,0,1,11.013,6.994l-3.236,2.354a13,13,0,0,0-21.636.406Z" transform="translate(-5397 -22236)" fill="#707070"/>
    <path id="Path_8250" data-name="Path 8250" d="M-.156,16.144l-.184-.112a.177.177,0,0,1-.1-.144A.854.854,0,0,0-.38,15.7l.208.032q.016,0,.016-.008t.032-.024a.288.288,0,0,0,.224.112q.032,0,.016-.016a.333.333,0,0,1,.128-.016.193.193,0,0,0,.064-.024.465.465,0,0,0,.112-.088l.08-.08.176-.16.368-.368a.138.138,0,0,1,.1-.048.561.561,0,0,1,.064-.16l.032-.032a.186.186,0,0,1,.048-.032l.272-.32a.694.694,0,0,0,.056-.072,1.15,1.15,0,0,1,.12-.136.783.783,0,0,1,.048-.08,1.046,1.046,0,0,0,.064-.112L2,13.9q.016,0,.032-.112l.064-.048a.242.242,0,0,0,.064-.144,1.5,1.5,0,0,0,.136-.16q.072-.1.168-.208l.176-.32.032.032a2.192,2.192,0,0,1,.144-.272.143.143,0,0,0,.08-.1.477.477,0,0,0,.048-.064.929.929,0,0,0,.08-.192q.112-.064.1-.064H3.14q-.016.016.016.016a.783.783,0,0,0,.048-.08q.016-.032.1-.168t.312-.456a.287.287,0,0,0,.048-.144.427.427,0,0,0,.112-.08v-.032q0-.128.224-.24.032-.08.016-.08a2.3,2.3,0,0,0,.136-.192,2.073,2.073,0,0,1,.184-.24q.032-.032,0-.048a.437.437,0,0,0,.048-.224.1.1,0,0,0-.112-.112l-.048.016a.509.509,0,0,0-.24-.16.878.878,0,0,0-.256-.08.046.046,0,0,0-.032.016H3.684a.014.014,0,0,1-.016-.016L3.6,9.968Q3.62,9.9,3.572,9.9a.213.213,0,0,1-.112-.016l-.048.064a.046.046,0,0,1,.016-.032L3.4,9.888a.263.263,0,0,0-.08-.016.065.065,0,0,0-.048.016.065.065,0,0,0-.048-.016q-.1.032-.064.032Q2.98,9.9,3,9.888V9.824H3.06a.3.3,0,0,1,.224-.08.065.065,0,0,1,.048-.016.026.026,0,0,1,.024.016q.008.016.04.016a.524.524,0,0,0,.128-.032q-.016.064.016.064a.2.2,0,0,0,.072-.016.183.183,0,0,1,.056-.016.123.123,0,0,1,.056.032.121.121,0,0,0,.072.032l.048-.032.056.024a1.843,1.843,0,0,1,.168.088l.088.048a.8.8,0,0,0,.168.064l.032.032a.144.144,0,0,0,.112-.056.181.181,0,0,0,.048-.12V9.84A.046.046,0,0,1,4.5,9.808a1.958,1.958,0,0,0,.176-.336V9.44a.213.213,0,0,1,.024-.1.548.548,0,0,0,.04-.112q0-.016-.032-.048a1.552,1.552,0,0,0,.1-.368l.08-.176V8.528l.048-.208L5,8.224a.127.127,0,0,1-.016-.08.227.227,0,0,1,.032-.128v-.08l.032-.064a.621.621,0,0,0,.032-.08V7.664l.048-.16a.127.127,0,0,1-.016-.08A1.775,1.775,0,0,1,5.132,7.2q.024-.16.024-.176l-.016-.3q-.016-.1,0-.112a.223.223,0,0,1-.016-.1.526.526,0,0,0-.016-.128l.032-.048q-.064-.032-.08-.384-.032-.032-.088-.08t-.056-.064q0-.064.1-.08.016,0,.04.032t.04.032a.065.065,0,0,0,.048-.016.765.765,0,0,1,.1.224l.08.608a.262.262,0,0,1-.016.064.263.263,0,0,0-.016.08.435.435,0,0,0,.032.136.549.549,0,0,1,.032.1l-.024.056a1.287,1.287,0,0,0-.056.216q.032,0,.1.064-.032.032-.032.048A.274.274,0,0,0,5.38,7.5a.046.046,0,0,1-.016.032l.032.208a.849.849,0,0,1-.008.1.867.867,0,0,1-.04.16v.064a.127.127,0,0,1-.016.08q-.016.016-.016,0,0,.016,0,.056a.45.45,0,0,0,.016.1v.16a.173.173,0,0,1-.048.128A.416.416,0,0,0,5.3,8.72H5.284q-.016,0-.016.128a.213.213,0,0,0,.016.112.287.287,0,0,0-.048.176l.048.192.16-.256q.144-.24.24-.24a.046.046,0,0,0,.032.016A.562.562,0,0,0,5.8,8.72a.014.014,0,0,1,.016.016q.048-.08.072-.08t.04-.032q.032-.032,0-.048a.827.827,0,0,0,.208-.224H6.18A2.345,2.345,0,0,0,6.4,8.08a.123.123,0,0,0,.048.016q-.016,0,.048-.048A.154.154,0,0,0,6.668,7.9l.024-.144a.065.065,0,0,1,.048.016.816.816,0,0,1,.368-.32q.032-.032.1-.1a3.726,3.726,0,0,1,.416-.328.132.132,0,0,0,.1-.056q.048-.056.08-.056-.016,0,.016.032a.275.275,0,0,1,.08-.08q.064-.048.224-.176a.159.159,0,0,1,.048-.056.6.6,0,0,0,.064-.056.456.456,0,0,0,.256-.144.093.093,0,0,1,.064-.016h.016q-.016.016,0,.016l.1-.1q.032-.048.064-.048h.032a.014.014,0,0,0,.016.016.322.322,0,0,0,.1-.064.322.322,0,0,1,.1-.064H9a.766.766,0,0,1,.12-.04.716.716,0,0,0,.184-.12.2.2,0,0,0,.072-.04.2.2,0,0,1,.072-.04q.016,0,0,.016a.014.014,0,0,0,.016.016.64.64,0,0,0,.136-.08.639.639,0,0,1,.136-.08q.032,0,.016.016t0,.016q.016,0,.048-.032-.016,0-.016-.008V5.792l.04-.008a.663.663,0,0,1,.12-.008.065.065,0,0,1,.048.016V5.76l.176-.1h.048a.563.563,0,0,0,.12-.024,2.484,2.484,0,0,0,.248-.088l.032.032q.048-.064.064-.064l.352.032q.016,0,0-.016a.014.014,0,0,1,.016-.016h.048A1.232,1.232,0,0,0,11.22,5.5a.938.938,0,0,1,.192-.024l.24.048a.131.131,0,0,0,.08-.048l.1.032.016.016h.048l.064.032a.281.281,0,0,0,.08.032q.016,0,.048-.032l.032.032a1.128,1.128,0,0,0,.24.064q.048.064.08.064h.016a.014.014,0,0,1,.016-.016,2.7,2.7,0,0,1,.288.176q.176.128.16.128l.256.288a.223.223,0,0,0,.1.016l.16.336a.5.5,0,0,0,.048.224V6.88a.516.516,0,0,0,.064.224q-.112.064-.08.08a1.111,1.111,0,0,1,0,.384q-.016.048-.064.24t-.16.512l-.256.48q-.032.048-.08.112t-.144.176l-.048.128q-.064.016-.256.3a.427.427,0,0,0-.112.08.16.16,0,0,1-.048.088q-.048.056-.08.088l-.48.5a.065.065,0,0,0-.048.016.667.667,0,0,1-.224.192.184.184,0,0,1-.056.1.915.915,0,0,1-.232.16h-.016V10.8q-.1.064-.336.192l-.032.024a1.975,1.975,0,0,0-.144.136l-.416.208q-.144.064-.144.112,0-.016-.032-.016a1.31,1.31,0,0,0-.192.1,1.31,1.31,0,0,1-.192.1q.016-.016-.032-.032l-.032.048H9.588a.281.281,0,0,0-.08.032l-.032.016A.014.014,0,0,1,9.46,11.7a.014.014,0,0,0-.016-.016l-.176.1a.026.026,0,0,1-.024-.016.026.026,0,0,0-.024-.016.153.153,0,0,0-.064.04.139.139,0,0,1-.08.04H9.06a.014.014,0,0,0-.016-.016.663.663,0,0,0-.192.112.416.416,0,0,0-.128.016q0,.016-.048.048l-.016-.032-.032.032q-.032,0-.016-.016H8.6q-.192,0-.192.176a.124.124,0,0,0,.088.128,2.424,2.424,0,0,1,.328.176l.064.064a.092.092,0,0,0,.064-.032q0,.016.1.064v.048H9.06a.014.014,0,0,0,.016-.016.186.186,0,0,0,.048.032.251.251,0,0,1,.064.048.371.371,0,0,1,.072.008.74.74,0,0,1,.088.024,1.105,1.105,0,0,0,.288.144l.048.016a1.1,1.1,0,0,1,.192.112q.032,0,.048-.048a.287.287,0,0,0,.144.1l.064.064h.032a.446.446,0,0,1,.112.064.446.446,0,0,0,.112.064.065.065,0,0,0,.048-.016h.032l.064.064a.761.761,0,0,1,.208.048l.144.1.192.048.032.032a.142.142,0,0,0,.064-.016h.064a.123.123,0,0,1,.056.032.123.123,0,0,0,.056.032h.016V13.5h0a.284.284,0,0,0,.128.08l.048-.032q-.016.048,0,.048a.014.014,0,0,0,.016-.016h.016a.165.165,0,0,1,.064.032.165.165,0,0,0,.064.032.014.014,0,0,0,.016-.016q0-.016.032-.016a.014.014,0,0,1,.016.016h.016l.1-.032.048.048.032-.032a.014.014,0,0,0,.016.016l.08-.016a.281.281,0,0,0,.032-.08.093.093,0,0,0,.064.016.725.725,0,0,0,.08-.144A.669.669,0,0,0,12.2,13.3a.53.53,0,0,0-.168-.232q-.088-.056-.088-.072a.446.446,0,0,0,.1-.032l.224.144a.606.606,0,0,0,.112.184.7.7,0,0,1,.112.424,1.3,1.3,0,0,0-.144.272.429.429,0,0,0-.144.144q-.08,0-.1.112H12a.217.217,0,0,1-.072-.032.2.2,0,0,0-.088-.032l-.08.032q0,.016-.128.016-.016,0-.024-.032t-.024-.032q0,.016-.048.032,0-.08-.064-.08h-.032a.014.014,0,0,1-.016.016q.016,0-.064-.048a.131.131,0,0,1-.08.048.136.136,0,0,1-.144-.1.661.661,0,0,1-.088-.008,1.192,1.192,0,0,1-.12-.024.522.522,0,0,1-.144-.056.1.1,0,0,0-.048-.024h-.032a.014.014,0,0,1-.016.016.564.564,0,0,1-.128-.112l-.048-.048a.372.372,0,0,0-.1-.064l-.08-.128q-.032,0-.048.064h-.1a.108.108,0,0,1-.1-.048l-.064-.1H10a.661.661,0,0,1-.208-.08q-.016-.128-.08-.16l-.128.112-.24-.144a.9.9,0,0,0-.224-.144q0-.064-.048-.064H9.044q.016.016,0,.016h0s0-.005,0-.016a.446.446,0,0,1-.1-.032q-.08-.08-.112-.064L8.82,12.9l-.032.032a.451.451,0,0,0-.432-.288q0-.032.016-.032a.709.709,0,0,0-.144-.128q-.032,0-.032.016H8.18l-.464-.272q-.08-.064-.064-.064H7.62a.016.016,0,0,1-.032,0,.014.014,0,0,0-.016-.016l-.288.048a1.789,1.789,0,0,1-.3-.048.065.065,0,0,0-.048.016H6.788a1.388,1.388,0,0,1-.192-.016.563.563,0,0,1-.12-.024.694.694,0,0,0-.1-.024H6.356a.014.014,0,0,1-.016.016.281.281,0,0,1-.08-.032.281.281,0,0,0-.08-.032.026.026,0,0,0-.024.016.026.026,0,0,1-.024.016q-.032,0-.1-.112l-.048.024L5.972,12a.281.281,0,0,1-.08-.032l-.064-.032q-.032,0-.032.016H5.78a.046.046,0,0,1-.032-.016.046.046,0,0,0-.032-.016H5.684a2.263,2.263,0,0,1-.24-.1q-.048-.016-.16-.208.016,0,.016-.032l.128.064.048.048a.746.746,0,0,1,.12.056.882.882,0,0,0,.184.072,2.135,2.135,0,0,0,.256-.024q.176-.024.208-.024l.288.032a2.144,2.144,0,0,0,.216.016h.088q.048,0,.1-.08a.1.1,0,0,0-.064-.08l-.032.032-.416-.3H6.388a.176.176,0,0,1-.112-.064,1.592,1.592,0,0,0-.288-.192l-.144-.16a.046.046,0,0,0-.016.032q-.048,0-.064-.064H5.748a.014.014,0,0,1-.016.016q-.064,0-.128-.1t-.064-.072a.174.174,0,0,0-.064.032h0q.016,0-.032-.024a.52.52,0,0,0-.128-.04q-.16-.1-.16-.112s0,.011,0,.032q-.048,0-.1-.08a.217.217,0,0,1-.072-.032.217.217,0,0,0-.072-.032q-.032,0-.064.048v.08a1.706,1.706,0,0,1-.1.3l-.08.08v.08a.4.4,0,0,1-.112.16q.032.032,0,.128H4.5a.4.4,0,0,0-.048.112v.208a.065.065,0,0,0-.048.016q-.016,0-.016.08a.193.193,0,0,1-.024.064.193.193,0,0,0-.024.064.143.143,0,0,0-.064.144l-.048.048q0,.192-.112.24,0,.112-.032.112h0l-.032-.016v.08A.2.2,0,0,1,4,12.688q-.056.064-.056.08l-.048.24a.768.768,0,0,0-.144.336.973.973,0,0,1-.112.144h0q0-.016-.032-.032a.356.356,0,0,0-.032.16.407.407,0,0,0-.1.1,1.316,1.316,0,0,0-.112.192l-.048.056q-.048.056-.032.088a.182.182,0,0,0-.064.1q-.064.016-.048.1l-.048.032a.209.209,0,0,1-.1.16q0-.032-.08.176a.267.267,0,0,0-.24.288.627.627,0,0,1-.144.128l-.016-.008L2.5,14.992l-.112.16a.069.069,0,0,1-.032.056.159.159,0,0,0-.048.056l-.24.256a1.483,1.483,0,0,0-.192.144,1.333,1.333,0,0,1-.336.192.086.086,0,0,1-.1.064L1.428,15.9l-.032.048q-.208.1-.176.1a.014.014,0,0,1-.016-.016.033.033,0,0,0-.024.008l-.008.008q0,.016-.016,0a.046.046,0,0,0-.032-.016l-.192.048h0q0-.016-.1-.048H.724l-.192.032q-.016,0-.016-.008t-.064-.024A.246.246,0,0,1,.356,16q-.064.048-.048.048A.526.526,0,0,1,.18,16q-.016,0-.024.032t-.024.032q-.064,0-.048-.016A.658.658,0,0,0-.156,16.144Zm7.232-4.688q.032-.032.152.112a.413.413,0,0,0,.28.16q0-.016.16-.032a.591.591,0,0,0,.152-.024l.216-.056q-.032.032.064,0a1.045,1.045,0,0,1,.272-.112h.016a.014.014,0,0,0,.016.016q.016,0,.008-.016t.024-.016h.016a.014.014,0,0,0,.016.016q.016,0,.032-.024t.032-.024h.016a.014.014,0,0,0,.016.016q.016,0,.088-.088t.1-.088q.016,0,0,.016h.016a.168.168,0,0,0,.088-.024,1.069,1.069,0,0,1,.264-.056l.1-.128a.093.093,0,0,0,.064.016.312.312,0,0,0,.088-.04.312.312,0,0,1,.088-.04l.032.016q.048-.032.144-.112t.128-.048a1.432,1.432,0,0,0,.224-.144L10,10.736l-.016.016H10a.046.046,0,0,0,.032-.016h.016a.162.162,0,0,0,.144-.072q.048-.072.128-.2l.048-.024.016-.008a.092.092,0,0,1,.064.032l.144-.112q0,.016.032.016t.08-.1h.1l.16-.192a.524.524,0,0,0,.08-.064.343.343,0,0,0,.064-.112h.016q.08,0,.176-.128h.1V9.664a.26.26,0,0,1,.128,0l.048-.128a.065.065,0,0,1,.048.016l.112-.128.1-.176a.263.263,0,0,0,.064-.008l.1-.024q0-.128.024-.112t.1-.144l.048-.1a.416.416,0,0,0,.128-.016l.08-.112-.064-.048a.621.621,0,0,0,.032-.08A.063.063,0,0,1,12.4,8.56a.014.014,0,0,1,.016.016h.032a.109.109,0,0,0,.08-.032.278.278,0,0,1,.032-.112.262.262,0,0,1-.032-.04.078.078,0,0,1-.016-.04l.208-.208.048.032a1.9,1.9,0,0,1,.256-.512h.1l.08-.3a.275.275,0,0,1-.016-.112.137.137,0,0,0,.024-.072q.008-.056.024-.216l-.016-.112q-.016-.08-.04-.16a.521.521,0,0,0-.1-.176q-.032-.224-.5-.576l-.144-.048-.048-.048-.256-.08L12.1,5.712a.253.253,0,0,1-.144-.016l-.016.032q-.032-.032-.048-.032a.046.046,0,0,0-.032.016h-.032l-.24-.064a.014.014,0,0,0-.016.016.014.014,0,0,1-.016.016.123.123,0,0,1-.048-.016.123.123,0,0,0-.048-.016h-.24q-.016,0-.112.016a.981.981,0,0,1-.128.016.078.078,0,0,1-.04-.016.078.078,0,0,0-.04-.016,3.025,3.025,0,0,1-.336.112H10.54a.129.129,0,0,1-.056-.016q-.24.064-.208.08h0l-.048-.032-.1.032-.064.128a.3.3,0,0,0-.1-.016.123.123,0,0,0-.056.032A.123.123,0,0,1,9.86,6a.014.014,0,0,1-.016-.016H9.828q-.048,0-.112.112a.033.033,0,0,1-.024-.008.033.033,0,0,0-.024-.008.274.274,0,0,0-.128.048l-.224.128q0-.016-.032-.016-.08,0-.1.112a.381.381,0,0,0-.1.024L9.012,6.4l-.064-.016v.032q-.032-.032-.048-.032,0,.08-.144.112-.1.064-.1.088t-.032.024H8.612A.014.014,0,0,0,8.6,6.592a1.017,1.017,0,0,0-.176.128l.016.016v.016a.046.046,0,0,1-.032.016q-.032.128-.128.128a.167.167,0,0,1-.1-.016q0,.048-.016.048A.2.2,0,0,0,8,7.056L7.988,7.04,7.924,7.1a.046.046,0,0,0-.032-.016.832.832,0,0,0-.144.176.878.878,0,0,0-.112.048.216.216,0,0,0-.1.144l-.112.08a.181.181,0,0,0-.12.048q-.056.048-.28.272,0,.032-.128.152a.981.981,0,0,1-.192.152.476.476,0,0,1-.224.208l-.048.112h-.08a.711.711,0,0,0-.072.088q-.04.056-.1.136a.783.783,0,0,0-.08.048,1.046,1.046,0,0,1-.112.064.765.765,0,0,0-.1.224l-.208.128a.1.1,0,0,0-.048.064q-.016.048-.144.1l-.064.16a2.45,2.45,0,0,0-.176.2,1.4,1.4,0,0,0-.176.3.406.406,0,0,0-.112.352l.768.432a.332.332,0,0,1,.1.056,1.07,1.07,0,0,0,.192.1.2.2,0,0,1,.064.056.282.282,0,0,0,.1.072.3.3,0,0,1,.1.016q.064.112.128.112l.032-.032h0a.546.546,0,0,0,.176.08l.056.056a.11.11,0,0,0,.072.04.014.014,0,0,1,.016-.016A.706.706,0,0,1,6.9,11.4a.481.481,0,0,0,.16.088q.016,0,0-.016A.014.014,0,0,1,7.076,11.456Zm-1.9-.816H5.156ZM1.092,15.6l.032-.064a.065.065,0,0,0,.048.016q.016,0,.032-.032t.032-.032h.016a.014.014,0,0,0,.016.016l.016-.016q.048-.048.208-.216a.925.925,0,0,1,.272-.216.065.065,0,0,1,.048-.016,5.739,5.739,0,0,1,.528-.64.225.225,0,0,1,.056-.088q.04-.04.184-.2a.213.213,0,0,1,.048-.128.7.7,0,0,0,.128-.128q.128-.16.208-.272a1.442,1.442,0,0,0,.112-.176,1.094,1.094,0,0,1,.128-.272q.112-.064.112-.144,0-.016.032-.016.032-.064.072-.152t.088-.2l.112-.16.064-.24a1.715,1.715,0,0,0,.144-.384q.144-.512.176-.48a.1.1,0,0,0-.048-.048,3.6,3.6,0,0,0-.224.336,1.578,1.578,0,0,1-.272.336,2.058,2.058,0,0,1-.136.256q-.088.144-.232.368l-.072.072a1.2,1.2,0,0,0-.136.216l-.144.192-.032.1q-.064.08-.136.184T2.42,13.6q-.064.08-.152.2t-.2.3a.178.178,0,0,1-.072.16,1.048,1.048,0,0,0-.216.32l-.016-.016-.272.368-.192.208a.588.588,0,0,1-.08.12q-.048.056-.144.152a.258.258,0,0,0-.032.112Q1.044,15.472,1.092,15.6ZM4,11.392q0-.016,0-.032Zm8.48,2.32v0ZM-.444,15.872v.016h0Zm14.752-1.856-.112-.064a.963.963,0,0,1-.144-.016,1.162,1.162,0,0,1-.288-.112l-.088-.04a.594.594,0,0,1-.12-.072.685.685,0,0,0-.144-.24H13.38l-.048.032a.248.248,0,0,0-.1-.144.242.242,0,0,0-.064-.144.654.654,0,0,0,0-.288.5.5,0,0,0-.128-.192l.048-.064a1.455,1.455,0,0,0,.064-.152q.032-.088.064-.2.016-.064.032-.144t.048-.192q-.016-.016-.152-.128t-.232-.064a.129.129,0,0,0,.016-.056v-.024q0-.016-.032-.04a.069.069,0,0,1-.032-.056l.048-.056q.048-.056.064-.056a.3.3,0,0,1,.1.032.3.3,0,0,0,.1.032.123.123,0,0,0,.048-.016.123.123,0,0,1,.048-.016l.272.064a.246.246,0,0,0,.1-.032l.4-.4q.048,0,.056-.024a1.047,1.047,0,0,1,.168-.168.183.183,0,0,0,.056-.016.451.451,0,0,0,.12-.1l.048-.08a1.5,1.5,0,0,1,.816-.32h.112q-.032.032.032.032a.123.123,0,0,0,.048-.016.123.123,0,0,1,.048-.016l.1.064h.1l.064.064a.014.014,0,0,0,.016-.016h.016q-.032,0,.064.1l-.08.256a.877.877,0,0,0-.136.128q-.088.1-.12.1a.217.217,0,0,1-.072-.032.2.2,0,0,0-.088-.032.446.446,0,0,0-.1.032.343.343,0,0,0-.112.064.259.259,0,0,1-.072.04q-.056.024-.376.136.016.112-.048.128a.175.175,0,0,0-.144.08v.016a.561.561,0,0,0,.368.08.078.078,0,0,0,.04-.016.1.1,0,0,1,.056-.016.046.046,0,0,1,.032.016h.032a.1.1,0,0,0,.048-.024.1.1,0,0,1,.048-.024,1.116,1.116,0,0,1,.192.048,1.637,1.637,0,0,0,.176.048q.064,0,.1-.08l.064.048h.08q.016,0,.064-.048v-.032a.426.426,0,0,0-.192-.08v-.128l.08-.032a.046.046,0,0,1,.032.016h.032l.144-.048a.609.609,0,0,0,.112.16q.016,0,.016-.032a.5.5,0,0,1,.136.088.275.275,0,0,0,.12.072.1.1,0,0,0,.048-.024.42.42,0,0,1,.064-.04h.08a.946.946,0,0,0,.32-.064l.048.032a.154.154,0,0,1,.112-.048q.032,0,.032.016h.016l.176-.032a.22.22,0,0,1,.112-.048,1.581,1.581,0,0,1,.272-.016.014.014,0,0,0,.016-.016.588.588,0,0,1,.136-.048q.072-.016.168-.032a.4.4,0,0,1,.072-.048.793.793,0,0,1,.2-.064h.064a.438.438,0,0,0,.1-.016l.048-.048a.014.014,0,0,1,.016.016h.016q-.064,0,.224-.128a.065.065,0,0,1,.016.048.263.263,0,0,0,.016.08q-.048,0-.064.064a.269.269,0,0,0-.224.128l-.24.1h-.072a.45.45,0,0,0-.1.016l-.144.08a.046.046,0,0,1-.032-.016.046.046,0,0,0-.032-.016q.016,0-.088.048a.449.449,0,0,1-.184.048h-.016a.014.014,0,0,0-.016-.016l-.048.048a.715.715,0,0,1-.168.016,1.886,1.886,0,0,0-.232.016.046.046,0,0,1-.016.032q.032,0-.008.008l-.12.024h-.128a1.388,1.388,0,0,0-.192.016q-.016,0-.048.032l.208.24v.048l.016.016a1.456,1.456,0,0,1,.1.144q.048.1,0,.112.048.16.048.112a.481.481,0,0,1-.016.08q-.016.064-.048.176a.815.815,0,0,0-.064.12q-.032.072-.064.168-.048.064-.144.168t-.256.264q0,.016-.072.056a.508.508,0,0,0-.152.152q-.1.048-.232.1t-.312.136l-.168.04a2.313,2.313,0,0,1-.232.04q-.048.016-.128.048A.568.568,0,0,1,14.8,14a1.665,1.665,0,0,1-.32-.016Zm.144-.16q0,.016.008-.008t.024-.024l.128.032a.19.19,0,0,0,.12-.024.1.1,0,0,1,.072-.024h.064a.263.263,0,0,0,.08.016A.1.1,0,0,0,15,13.8a.1.1,0,0,1,.048-.024q.032,0,.032.016l.048-.032h.208l.1-.024a.6.6,0,0,0,.2-.088l.128-.08a1.591,1.591,0,0,1,.224-.12.812.812,0,0,0,.464-.456.4.4,0,0,1,.024-.12.441.441,0,0,0,.024-.088.184.184,0,0,0-.064-.128.849.849,0,0,1,.008-.1q.008-.064.024-.144l-.032-.032a.892.892,0,0,0-.112-.256.046.046,0,0,1-.032-.016.39.39,0,0,1-.032-.144l-.08-.064v-.08H16a.046.046,0,0,1-.032-.016.046.046,0,0,0-.032-.016h-.08q-.176.08-.176.1h0l-.128-.048-.08.032a.47.47,0,0,1-.176.032q-.016,0-.032-.024a.054.054,0,0,0-.048-.024.153.153,0,0,0-.064.04.153.153,0,0,1-.064.04q-.032,0-.04-.016a.026.026,0,0,0-.024-.016.123.123,0,0,0-.048.016.123.123,0,0,1-.048.016l-.112-.064q0,.128-.1.128-.064,0-.064-.112a.385.385,0,0,0-.1.04.168.168,0,0,1-.088.024H14.42l-.048-.048a.074.074,0,0,1-.08.048.093.093,0,0,1-.064-.016v-.048a.186.186,0,0,1-.048.032l-.064.032v.016a.178.178,0,0,1-.1.144q-.1.064-.272.16a.132.132,0,0,0,.008.04.132.132,0,0,1,.008.04.2.2,0,0,1-.144.208l-.144.432q.032,0,.032.016l.176.528a.046.046,0,0,0,.032-.016h.048q.048,0,.08.1t.1.1a.014.014,0,0,0,.016-.016h.016q-.016,0,.128.064l.1.032.032-.032Q14.452,13.824,14.452,13.856Zm2.224.8q-.048-.016-.1-.128a.253.253,0,0,1,.016-.144q0-.016-.032-.048a.372.372,0,0,0,.056-.072q.024-.04.056-.1.016,0,.048.032a.577.577,0,0,1,.192-.08q-.032-.032,0-.032A.127.127,0,0,0,17,14.1a.2.2,0,0,0,.072-.04.173.173,0,0,1,.088-.04H17.2q.064,0,.032-.032a1.046,1.046,0,0,1,.112-.064l.128-.064h.048l.032-.048h.016a.449.449,0,0,0,.184-.048.6.6,0,0,1,.12-.048q.016,0,.064.048l.032-.032a.31.31,0,0,0,.144-.144.2.2,0,0,0,.128.016.947.947,0,0,1,.176-.08.278.278,0,0,0,.112-.048q.08-.048.3-.176l-.144-.352a.065.065,0,0,0-.016-.048.089.089,0,0,0,.016-.112.146.146,0,0,0-.08-.08l.016-.016a.3.3,0,0,1-.08-.224q-.016-.032-.1,0L18.4,12.4a.6.6,0,0,1,.064-.128.138.138,0,0,0-.1-.048l-.064-.128a.194.194,0,0,1,.048-.1.1.1,0,0,1-.064-.08l.032-.272a.489.489,0,0,0,.032-.1,1.609,1.609,0,0,1,.064-.2l.272-.416.176-.176q.32-.3.4-.3v.016h.016a.014.014,0,0,0,.016-.016.467.467,0,0,0,.2-.1,2.249,2.249,0,0,1,.184-.144h.032q.064,0,.064-.048l.048.016.032-.032a.02.02,0,1,0,.032,0,.046.046,0,0,1,.016-.032q-.016,0,0-.016v.016q0,.016.016,0h.112l.032-.1a.046.046,0,0,0,.016.032l.072-.04a.282.282,0,0,1,.136-.04q.064,0,.072.032t.072.032h.016q-.016-.016.016-.016a.407.407,0,0,1,.216.1.7.7,0,0,1,.152.136l-.032.112-.16.048a.333.333,0,0,0-.128-.016q-.032-.112-.1-.112a.065.065,0,0,1-.048.016.142.142,0,0,0-.064.016.129.129,0,0,1-.1-.064.046.046,0,0,1-.032-.016.245.245,0,0,1-.176.112l-.1-.048a.6.6,0,0,0-.12.048q-.1.048-.12.032a.445.445,0,0,1-.208.224l-.176.336q-.224.08-.224.256a.377.377,0,0,0,.048.16l-.032.1a.165.165,0,0,0-.064.032.108.108,0,0,0-.048.1q0,.1.064.064.032.016.048.192a.092.092,0,0,1-.032.064l.048.048a.619.619,0,0,1,.08.112q.032.032,0,.08.016,0,.032.08h.064a.485.485,0,0,1,.1.272.491.491,0,0,1,.128.224v.144a.065.065,0,0,0-.048.016l.048.08.128-.1a.626.626,0,0,1,.144-.08q.016,0,.048.032l.04-.04a.182.182,0,0,0,.04-.072,1.5,1.5,0,0,0,.4-.272l.048.016a.87.87,0,0,0,.32-.336.127.127,0,0,1,.08.016q0-.048.08-.1a.178.178,0,0,1,.08.016l.016.128q0,.016-.072.04a1.043,1.043,0,0,0-.264.2,1.962,1.962,0,0,1-.256.16l-.048.064q-.048.032-.12.088t-.168.12a.543.543,0,0,0-.152.072q-.088.056-.2.136a.046.046,0,0,1,.016.032q0,.016-.032.048a.028.028,0,0,1-.032-.032l-.048.048a.109.109,0,0,0-.032.08.322.322,0,0,0,.008.088l.008.024-.048.3a.468.468,0,0,1-.192.256,1.346,1.346,0,0,0-.208.192.15.15,0,0,1-.08.1h-.032a.014.014,0,0,0-.016-.016,1.446,1.446,0,0,0-.176.144q-.144.128-.176.128H18.58a.014.014,0,0,0-.016-.016.482.482,0,0,0-.208.144l-.048-.032q0,.032-.3.048a.3.3,0,0,1-.12-.056q-.088-.056-.088-.072v-.112q.016-.048.192-.128.016,0,.032.024a.054.054,0,0,0,.048.024l.32.048h.048a.014.014,0,0,0,.016-.016q0-.016.032-.032a1.657,1.657,0,0,0,.384-.288.223.223,0,0,0,.016-.1.046.046,0,0,0,.016.032.114.114,0,0,0,.088-.128q-.008-.1.008-.112-.016-.048-.032-.032a.281.281,0,0,1,.032-.08l-.016-.08q-.048-.064-.08-.032a.014.014,0,0,0-.016.016q0,.016-.032.016a.046.046,0,0,1-.032-.016q-.016-.032-.048,0a.274.274,0,0,0-.112.12.315.315,0,0,1-.176.136l-.016-.016h-.032q.016,0-.016.032a.071.071,0,0,1-.032-.008l-.048-.024q.032.016,0,.1l-.032-.032-.1.08-.16.112q0-.016-.048-.032a.252.252,0,0,1-.1.064h-.032a.046.046,0,0,0-.032-.016l-.064.048a.173.173,0,0,0-.128.048q.08.032-.064.048a.014.014,0,0,0-.016-.016h-.016q-.144,0-.016.1l-.048.016v.008q0,.008.016.024v.008q0,.008-.016.024l.048.032v.048l-.184.032a.25.25,0,0,0-.136.064l-.1.08Zm5.36-.528q.016,0-.032-.048a.218.218,0,0,1-.144.032.243.243,0,0,1-.088-.024.26.26,0,0,0-.072-.024.36.36,0,0,0-.072.016.343.343,0,0,1-.088.016.558.558,0,0,1-.1-.024.466.466,0,0,0-.112-.024q-.016-.208-.368-.16v-.032a.287.287,0,0,0-.048-.176.561.561,0,0,1-.08-.208.694.694,0,0,1-.056-.072.446.446,0,0,1-.04-.232l.032-.064q.016-.016-.032-.08a1.228,1.228,0,0,0,.064-.256q.016-.08.024-.128a.5.5,0,0,0,.008-.08q-.1-.08-.1-.144l.048-.112a.213.213,0,0,0,.112.016h.064q.032-.048.072-.1a.975.975,0,0,1,.1-.12q.1,0,.176-.176l-.016-.064a.186.186,0,0,1,.032-.048h0a.123.123,0,0,1,.048.016l.064-.064a1.361,1.361,0,0,1,.16-.128,1.109,1.109,0,0,1,.16-.16,1.068,1.068,0,0,1,.216-.128.432.432,0,0,0,.136-.1l.048.024.016.008a1.289,1.289,0,0,0,.256-.112q-.016.064.032.064h.112l.08-.048a.67.67,0,0,1,.384.176.065.065,0,0,0,.048.016v.256a.092.092,0,0,1-.064-.032l-.064.144.064.1a1.076,1.076,0,0,0-.16.272v.128a.355.355,0,0,0-.112.016,1.413,1.413,0,0,1-.288.176h-.032a.046.046,0,0,0-.032-.016.394.394,0,0,0-.176.064q-.016.016-.048.056a.1.1,0,0,1-.08.04h-.016a.014.014,0,0,0-.016-.016.694.694,0,0,0-.168.056.991.991,0,0,1-.152.056h-.032a.046.046,0,0,0-.032-.016l-.048.048h-.1a.13.13,0,0,1-.1-.032h-.208a.716.716,0,0,1-.04.192,1.1,1.1,0,0,0-.04.144.658.658,0,0,0,.112.224q.016.016.064.072a1.245,1.245,0,0,0,.144.136.5.5,0,0,0,.1.128.142.142,0,0,0,.064.016.263.263,0,0,1,.08.016l.048.064a.166.166,0,0,1,.144,0l.08.048h.08V13.7q.016.016,0,.016a.046.046,0,0,0,.032.016.066.066,0,0,0,.04-.024.066.066,0,0,1,.04-.024h.032a.014.014,0,0,0,.016.016.176.176,0,0,0,.112-.064.148.148,0,0,0,.1,0l.016.016V13.7a.783.783,0,0,0-.08.048.71.71,0,0,1-.128.064v.064q0,.016.064.016a.584.584,0,0,0,.432-.16l.048.024.016.008a.028.028,0,0,0,.032-.032h.08a.41.41,0,0,0,.1-.088.177.177,0,0,1,.128-.072l.064.016.048-.128.048.032a.218.218,0,0,1,.144-.032V13.44a.046.046,0,0,1,.016-.032.905.905,0,0,0,.4-.272h.064l.24-.192a.194.194,0,0,1,.048-.1q.016,0,.048.032l.144-.192a.2.2,0,0,0,.112-.048l.048.048-.112.144a2.327,2.327,0,0,0-.24.192q-.144.128-.32.3-.112,0-.128.064a.41.41,0,0,0-.192.144l-.048-.048q-.016.016-.088.072a1.482,1.482,0,0,1-.232.136q-.032.032-.1.088a.2.2,0,0,1-.128.056q-.032,0-.016-.016h-.016a.213.213,0,0,0-.128.048q-.064.048-.064.08-.016,0-.048-.032a1.1,1.1,0,0,1-.24.112h-.032l-.016-.016-.24.064v-.016a.046.046,0,0,0-.016-.032l-.048.064a.078.078,0,0,0-.04.016A.078.078,0,0,1,22.036,14.128Zm-.384-1.616q-.016-.048.032-.048a.014.014,0,0,1,.016.016h.032q.016,0,.072-.048t.072-.048a.123.123,0,0,1,.048.016.123.123,0,0,0,.048.016q-.032,0,.08-.112l.048.032q.368-.24.368-.416a.238.238,0,0,0-.2-.256q-.2-.048-.376-.1a.092.092,0,0,1-.064.032.62.62,0,0,1-.176.192q-.032,0-.192.16a.7.7,0,0,1-.1.144q-.032.112-.056.176a.307.307,0,0,0-.024.1q.064.112.128.112h.016a.046.046,0,0,1,.032-.016A.5.5,0,0,1,21.652,12.512Zm1.376-.672Zm1.6.768v-.032a.1.1,0,0,1,.1-.112A.337.337,0,0,1,24.628,12.608Z" transform="translate(1 11)" fill="#f66165"/>
  </g>
</svg>
