<svg xmlns="http://www.w3.org/2000/svg" width="70.652" height="61.938" viewBox="0 0 70.652 61.938">
  <g id="logo" transform="translate(-8.348 -12.031)">
    <path id="Subtraction_17" data-name="Subtraction 17" d="M28.248,61.938a30.243,30.243,0,0,1-4.207-.285h-.01l-.086-.012h0a.356.356,0,0,1-.087-.012s0,0,0,0a.069.069,0,0,1-.025-.008.143.143,0,0,0-.043,0,.082.082,0,0,1-.042-.008c-.018,0-.037,0-.059,0a.1.1,0,0,0-.034-.008.21.21,0,0,0-.05,0c-.021-.008-.04-.012-.061-.02l-.029,0a30.708,30.708,0,0,1-12-4.543,32.137,32.137,0,0,1-5.174-4.176A30.988,30.988,0,0,1,.007,43.719H8.3a23.664,23.664,0,0,0,41.8-3.648H33.023l10.032-7.289h16.1A30.973,30.973,0,0,1,28.248,61.938ZM8.291,18.219H0c.212-.473.428-.918.638-1.336.01,0,.01,0,.01-.012l.007-.012A.2.2,0,0,1,.688,16.8a28.074,28.074,0,0,1,1.519-2.625l.015-.023a.378.378,0,0,0,.026-.047l.011-.008.009-.016a31.147,31.147,0,0,1,4.074-5.02c.537-.539,1.1-1.062,1.67-1.547A30.946,30.946,0,0,1,21.16.8,31.526,31.526,0,0,1,33.4.426h.01l.065.012a.334.334,0,0,1,.065.008A31.083,31.083,0,0,1,53.605,13.188l-5.9,4.285a23.678,23.678,0,0,0-39.417.742Z" transform="translate(19.844 12.031)" fill="#f66165"/>
    <path id="Path_8251" data-name="Path 8251" d="M.892,30.244l-.348-.212a.335.335,0,0,1-.2-.272A1.613,1.613,0,0,0,.469,29.4l.393.06q.03,0,.03-.015t.06-.045a.544.544,0,0,0,.423.212q.06,0,.03-.03a.629.629,0,0,1,.242-.03.365.365,0,0,0,.121-.045.879.879,0,0,0,.212-.166l.151-.151.333-.3.7-.7a.261.261,0,0,1,.181-.091,1.061,1.061,0,0,1,.121-.3l.06-.06a.352.352,0,0,1,.091-.06l.514-.6a1.312,1.312,0,0,0,.106-.136,2.172,2.172,0,0,1,.227-.257,1.479,1.479,0,0,1,.091-.151,1.977,1.977,0,0,0,.121-.212l.3-.3q.03,0,.06-.212l.121-.091a.457.457,0,0,0,.121-.272,2.838,2.838,0,0,0,.257-.3q.136-.181.317-.393l.333-.6.06.06a4.143,4.143,0,0,1,.272-.514.271.271,0,0,0,.151-.181.9.9,0,0,0,.091-.121,1.755,1.755,0,0,0,.151-.363q.212-.121.181-.121h.03q-.03.03.03.03a1.479,1.479,0,0,0,.091-.151q.03-.06.2-.317t.59-.862a.542.542,0,0,0,.091-.272.807.807,0,0,0,.212-.151v-.06q0-.242.423-.454.06-.151.03-.151a4.355,4.355,0,0,0,.257-.363,3.917,3.917,0,0,1,.348-.454q.06-.06,0-.091a.826.826,0,0,0,.091-.423.187.187,0,0,0-.212-.212L9.177,19a.962.962,0,0,0-.454-.3,1.659,1.659,0,0,0-.484-.151.087.087,0,0,0-.06.03h-.03a.027.027,0,0,1-.03-.03L8,18.573q.03-.121-.06-.121a.4.4,0,0,1-.212-.03l-.091.121a.087.087,0,0,1,.03-.06l-.06-.06a.5.5,0,0,0-.151-.03.123.123,0,0,0-.091.03.123.123,0,0,0-.091-.03q-.181.06-.121.06-.333,0-.3-.03V18.3H6.97a.576.576,0,0,1,.423-.151.123.123,0,0,1,.091-.03.048.048,0,0,1,.045.03q.015.03.076.03a.99.99,0,0,0,.242-.06q-.03.121.03.121a.371.371,0,0,0,.136-.03.347.347,0,0,1,.106-.03.232.232,0,0,1,.106.06.228.228,0,0,0,.136.06l.091-.06.106.045a3.483,3.483,0,0,1,.317.166q.06.03.166.091a1.5,1.5,0,0,0,.317.121l.06.06a.272.272,0,0,0,.212-.106.343.343,0,0,0,.091-.227v-.06a.087.087,0,0,1-.03-.06,3.7,3.7,0,0,0,.333-.635v-.06a.4.4,0,0,1,.045-.181,1.035,1.035,0,0,0,.076-.212q0-.03-.06-.091a2.934,2.934,0,0,0,.181-.7l.151-.333v-.212l.091-.393.121-.181a.239.239,0,0,1-.03-.151.43.43,0,0,1,.06-.242v-.151l.06-.121a1.173,1.173,0,0,0,.06-.151v-.242l.091-.3a.239.239,0,0,1-.03-.151,3.354,3.354,0,0,1,.045-.423q.045-.3.045-.333l-.03-.575q-.03-.181,0-.212a.421.421,0,0,1-.03-.181.994.994,0,0,0-.03-.242l.06-.091q-.121-.06-.151-.726-.06-.06-.166-.151t-.106-.121q0-.121.181-.151.03,0,.076.06t.076.06a.123.123,0,0,0,.091-.03,1.445,1.445,0,0,1,.181.423l.151,1.149a.5.5,0,0,1-.03.121.5.5,0,0,0-.03.151.821.821,0,0,0,.06.257,1.038,1.038,0,0,1,.06.2l-.045.106a2.432,2.432,0,0,0-.106.408q.06,0,.181.121-.06.06-.06.091a.517.517,0,0,0,.091.242.087.087,0,0,1-.03.06l.06.393a1.6,1.6,0,0,1-.015.181,1.639,1.639,0,0,1-.076.3v.121a.239.239,0,0,1-.03.151q-.03.03-.03,0v.106a.85.85,0,0,0,.03.2v.3a.327.327,0,0,1-.091.242.787.787,0,0,0,.03.242h-.03q-.03,0-.03.242a.4.4,0,0,0,.03.212.543.543,0,0,0-.091.333l.091.363.3-.484q.272-.454.454-.454a.087.087,0,0,0,.06.03,1.061,1.061,0,0,0,.151-.242.027.027,0,0,1,.03.03q.091-.151.136-.151t.076-.06q.06-.06,0-.091a1.563,1.563,0,0,0,.393-.423h.091A4.431,4.431,0,0,0,13.289,15a.232.232,0,0,0,.091.03q-.03,0,.091-.091a.291.291,0,0,0,.317-.272l.045-.272a.123.123,0,0,1,.091.03,1.542,1.542,0,0,1,.7-.6q.06-.06.181-.2a7.042,7.042,0,0,1,.786-.62.249.249,0,0,0,.181-.106q.091-.106.151-.106-.03,0,.03.06a.519.519,0,0,1,.151-.151q.121-.091.423-.333a.3.3,0,0,1,.091-.106,1.136,1.136,0,0,0,.121-.106.862.862,0,0,0,.484-.272.175.175,0,0,1,.121-.03h.03q-.03.03,0,.03l.181-.181q.06-.091.121-.091h.06a.027.027,0,0,0,.03.03.609.609,0,0,0,.181-.121.609.609,0,0,1,.181-.121h.06a1.448,1.448,0,0,1,.227-.076,1.352,1.352,0,0,0,.348-.227.372.372,0,0,0,.136-.076.372.372,0,0,1,.136-.076q.03,0,0,.03a.027.027,0,0,0,.03.03,1.209,1.209,0,0,0,.257-.151,1.208,1.208,0,0,1,.257-.151q.06,0,.03.03t0,.03q.03,0,.091-.06-.03,0-.03-.015v-.015l.076-.015a1.252,1.252,0,0,1,.227-.015.123.123,0,0,1,.091.03v-.06q.06-.03.333-.181h.091a1.064,1.064,0,0,0,.227-.045,4.694,4.694,0,0,0,.469-.166l.06.06q.091-.121.121-.121l.665.06q.03,0,0-.03a.027.027,0,0,1,.03-.03h.091a2.328,2.328,0,0,0,.242-.045,1.773,1.773,0,0,1,.363-.045l.454.091a.248.248,0,0,0,.151-.091l.181.06.03.03h.091l.121.06a.53.53,0,0,0,.151.06q.03,0,.091-.06l.06.06a2.132,2.132,0,0,0,.454.121q.091.121.151.121h.03a.027.027,0,0,1,.03-.03,5.1,5.1,0,0,1,.544.333q.333.242.3.242l.484.544a.421.421,0,0,0,.181.03l.3.635a.935.935,0,0,0,.091.423v.03a.974.974,0,0,0,.121.423q-.212.121-.151.151a2.1,2.1,0,0,1,0,.726q-.03.091-.121.454t-.3.968l-.484.907q-.06.091-.151.212t-.272.333l-.091.242q-.121.03-.484.575a.807.807,0,0,0-.212.151.3.3,0,0,1-.091.166q-.091.106-.151.166l-.907.937a.123.123,0,0,0-.091.03,1.26,1.26,0,0,1-.423.363.348.348,0,0,1-.106.181,1.729,1.729,0,0,1-.438.3h-.03v.121q-.181.121-.635.363l-.06.045a3.732,3.732,0,0,0-.272.257l-.786.393q-.272.121-.272.212,0-.03-.06-.03a2.476,2.476,0,0,0-.363.181,2.476,2.476,0,0,1-.363.181q.03-.03-.06-.06l-.06.091h-.03a.531.531,0,0,0-.151.06l-.06.03a.027.027,0,0,1-.03-.03.027.027,0,0,0-.03-.03l-.333.181a.048.048,0,0,1-.045-.03.048.048,0,0,0-.045-.03A.29.29,0,0,0,18.49,22a.263.263,0,0,1-.151.076h-.03a.027.027,0,0,0-.03-.03,1.254,1.254,0,0,0-.363.212.787.787,0,0,0-.242.03q0,.03-.091.091l-.03-.06-.06.06q-.06,0-.03-.03h-.03q-.363,0-.363.333a.235.235,0,0,0,.166.242,4.581,4.581,0,0,1,.62.333l.121.121a.174.174,0,0,0,.121-.06q0,.03.181.121v.091h.03a.027.027,0,0,0,.03-.03.352.352,0,0,0,.091.06.474.474,0,0,1,.121.091.7.7,0,0,1,.136.015,1.4,1.4,0,0,1,.166.045,2.089,2.089,0,0,0,.544.272l.091.03a2.085,2.085,0,0,1,.363.212q.06,0,.091-.091a.542.542,0,0,0,.272.181l.121.121h.06a.843.843,0,0,1,.212.121.843.843,0,0,0,.212.121.123.123,0,0,0,.091-.03h.06l.121.121a1.439,1.439,0,0,1,.393.091l.272.181.363.091.06.06a.268.268,0,0,0,.121-.03h.121a.232.232,0,0,1,.106.06.232.232,0,0,0,.106.06h.03v-.03h0a.536.536,0,0,0,.242.151l.091-.06q-.03.091,0,.091a.027.027,0,0,0,.03-.03h.03a.312.312,0,0,1,.121.06.312.312,0,0,0,.121.06.027.027,0,0,0,.03-.03q0-.03.06-.03a.027.027,0,0,1,.03.03h.03l.181-.06.091.091.06-.06a.027.027,0,0,0,.03.03l.151-.03a.53.53,0,0,0,.06-.151.175.175,0,0,0,.121.03,1.371,1.371,0,0,0,.151-.272,1.264,1.264,0,0,0-.06-.212,1,1,0,0,0-.317-.438q-.166-.106-.166-.136a.842.842,0,0,0,.181-.06l.423.272a1.145,1.145,0,0,0,.212.348,1.328,1.328,0,0,1,.212.8,2.459,2.459,0,0,0-.272.514.812.812,0,0,0-.272.272q-.151,0-.181.212h-.181a.41.41,0,0,1-.136-.06.372.372,0,0,0-.166-.06l-.151.06q0,.03-.242.03-.03,0-.045-.06t-.045-.06q0,.03-.091.06,0-.151-.121-.151h-.06a.027.027,0,0,1-.03.03q.03,0-.121-.091a.248.248,0,0,1-.151.091.257.257,0,0,1-.272-.181,1.25,1.25,0,0,1-.166-.015,2.253,2.253,0,0,1-.227-.045.987.987,0,0,1-.272-.106.184.184,0,0,0-.091-.045h-.06a.027.027,0,0,1-.03.03,1.065,1.065,0,0,1-.242-.212l-.091-.091a.7.7,0,0,0-.181-.121l-.151-.242q-.06,0-.091.121h-.181a.2.2,0,0,1-.181-.091l-.121-.181h-.06A1.25,1.25,0,0,1,19.7,25.1q-.03-.242-.151-.3l-.242.212-.454-.272a1.7,1.7,0,0,0-.423-.272q0-.121-.091-.121h-.06q.03.03,0,.03h0s0-.01,0-.03a.842.842,0,0,1-.181-.06q-.151-.151-.212-.121l-.03-.06-.06.06a.853.853,0,0,0-.816-.544q0-.06.03-.06a1.341,1.341,0,0,0-.272-.242q-.06,0-.06.03h-.03l-.877-.514q-.151-.121-.121-.121h-.06a.03.03,0,0,1-.06,0,.027.027,0,0,0-.03-.03l-.544.091a3.381,3.381,0,0,1-.575-.091.123.123,0,0,0-.091.03h-.272a2.623,2.623,0,0,1-.363-.03,1.064,1.064,0,0,1-.227-.045,1.311,1.311,0,0,0-.2-.045H13.2a.027.027,0,0,1-.03.03.53.53,0,0,1-.151-.06.53.53,0,0,0-.151-.06.048.048,0,0,0-.045.03.048.048,0,0,1-.045.03q-.06,0-.181-.212L12.5,22.4l-.03.015a.53.53,0,0,1-.151-.06l-.121-.06q-.06,0-.06.03h-.03a.087.087,0,0,1-.06-.03.087.087,0,0,0-.06-.03h-.06a4.276,4.276,0,0,1-.454-.181q-.091-.03-.3-.393.03,0,.03-.06l.242.121.091.091a1.411,1.411,0,0,1,.227.106,1.667,1.667,0,0,0,.348.136,4.035,4.035,0,0,0,.484-.045q.333-.045.393-.045l.544.06a4.051,4.051,0,0,0,.408.03h.166q.091,0,.181-.151a.192.192,0,0,0-.121-.151l-.06.06-.786-.575h-.06a.332.332,0,0,1-.212-.121,3.009,3.009,0,0,0-.544-.363l-.272-.3a.087.087,0,0,0-.03.06q-.091,0-.121-.121h-.03a.027.027,0,0,1-.03.03q-.121,0-.242-.2t-.121-.136a.328.328,0,0,0-.121.06h0q.03,0-.06-.045a.982.982,0,0,0-.242-.076q-.3-.181-.3-.212s0,.02,0,.06q-.091,0-.181-.151a.41.41,0,0,1-.136-.06.411.411,0,0,0-.136-.06q-.06,0-.121.091v.151a3.224,3.224,0,0,1-.181.575l-.151.151v.151a.75.75,0,0,1-.212.3q.06.06,0,.242H9.691a.75.75,0,0,0-.091.212V21.9a.123.123,0,0,0-.091.03q-.03,0-.03.151a.365.365,0,0,1-.045.121.365.365,0,0,0-.045.121.27.27,0,0,0-.121.272l-.091.091q0,.363-.212.454,0,.212-.06.212h0l-.06-.03v.151a.369.369,0,0,1-.106.242q-.106.121-.106.151l-.091.454a1.452,1.452,0,0,0-.272.635,1.84,1.84,0,0,1-.212.272h0q0-.03-.06-.06a.673.673,0,0,0-.06.3.77.77,0,0,0-.181.181,2.486,2.486,0,0,0-.212.363l-.091.106q-.091.106-.06.166a.345.345,0,0,0-.121.181q-.121.03-.091.181l-.091.06a.394.394,0,0,1-.181.3q0-.06-.151.333a.5.5,0,0,0-.454.544,1.185,1.185,0,0,1-.272.242L6,28.112l-.091-.045-.212.3a.131.131,0,0,1-.06.106.3.3,0,0,0-.091.106l-.454.484a2.8,2.8,0,0,0-.363.272A2.52,2.52,0,0,1,4.1,29.7a.162.162,0,0,1-.181.121l-.03-.03-.06.091q-.393.181-.333.181a.027.027,0,0,1-.03-.03.062.062,0,0,0-.045.015l-.015.015q0,.03-.03,0a.087.087,0,0,0-.06-.03l-.363.091h0q0-.03-.181-.091H2.555l-.363.06q-.03,0-.03-.015t-.121-.045a.464.464,0,0,1-.181-.06q-.121.091-.091.091a.993.993,0,0,1-.242-.091q-.03,0-.045.06t-.045.06q-.121,0-.091-.03A1.244,1.244,0,0,0,.892,30.244Zm13.667-8.859q.06-.06.287.212a.78.78,0,0,0,.529.3q0-.03.3-.06a1.117,1.117,0,0,0,.287-.045q.166-.045.408-.106-.06.06.121,0a1.975,1.975,0,0,1,.514-.212h.03a.027.027,0,0,0,.03.03q.03,0,.015-.03t.045-.03h.03a.027.027,0,0,0,.03.03q.03,0,.06-.045t.06-.045h.03a.027.027,0,0,0,.03.03q.03,0,.166-.166t.2-.166q.03,0,0,.03h.03a.317.317,0,0,0,.166-.045,2.019,2.019,0,0,1,.5-.106l.181-.242a.175.175,0,0,0,.121.03.589.589,0,0,0,.166-.076.589.589,0,0,1,.166-.076l.06.03q.091-.06.272-.212t.242-.091a2.706,2.706,0,0,0,.423-.272l.03-.03-.03.03h.03a.087.087,0,0,0,.06-.03h.03a.305.305,0,0,0,.272-.136q.091-.136.242-.378l.091-.045.03-.015a.174.174,0,0,1,.121.06l.272-.212q0,.03.06.03t.151-.181H21.6l.3-.363a.991.991,0,0,0,.151-.121.649.649,0,0,0,.121-.212h.03q.151,0,.333-.242h.181V18a.491.491,0,0,1,.242,0l.091-.242a.123.123,0,0,1,.091.03l.212-.242.181-.333a.5.5,0,0,0,.121-.015l.181-.045q0-.242.045-.212t.2-.272l.091-.181a.787.787,0,0,0,.242-.03l.151-.212-.121-.091a1.174,1.174,0,0,0,.06-.151.119.119,0,0,1,.121-.091.027.027,0,0,1,.03.03h.06a.205.205,0,0,0,.151-.06.526.526,0,0,1,.06-.212.5.5,0,0,1-.06-.076.147.147,0,0,1-.03-.076l.393-.393.091.06a3.6,3.6,0,0,1,.484-.968h.181l.151-.575a.519.519,0,0,1-.03-.212.26.26,0,0,0,.045-.136q.015-.106.045-.408l-.03-.212q-.03-.151-.076-.3a.985.985,0,0,0-.2-.333q-.06-.423-.937-1.089l-.272-.091-.091-.091-.484-.151-.06-.091a.477.477,0,0,1-.272-.03l-.03.06q-.06-.06-.091-.06a.087.087,0,0,0-.06.03h-.06l-.454-.121a.027.027,0,0,0-.03.03.027.027,0,0,1-.03.03.232.232,0,0,1-.091-.03.232.232,0,0,0-.091-.03h-.454q-.03,0-.212.03a1.855,1.855,0,0,1-.242.03.147.147,0,0,1-.076-.03.147.147,0,0,0-.076-.03,5.717,5.717,0,0,1-.635.212h-.045A.244.244,0,0,1,21,10.59q-.454.121-.393.151h0l-.091-.06-.181.06-.121.242a.571.571,0,0,0-.181-.03.232.232,0,0,0-.106.06.232.232,0,0,1-.106.06.027.027,0,0,1-.03-.03h-.03q-.091,0-.212.212a.062.062,0,0,1-.045-.015.062.062,0,0,0-.045-.015.517.517,0,0,0-.242.091l-.423.242q0-.03-.06-.03-.151,0-.181.212a.719.719,0,0,0-.2.045l-.136.045L18.1,11.8v.06q-.06-.06-.091-.06,0,.151-.272.212-.181.121-.181.166t-.06.045h-.03a.027.027,0,0,0-.03-.03,1.923,1.923,0,0,0-.333.242l.03.03v.03a.087.087,0,0,1-.06.03q-.06.242-.242.242a.315.315,0,0,1-.181-.03q0,.091-.03.091a.372.372,0,0,0-.3.242l-.03-.03-.121.121a.087.087,0,0,0-.06-.03,1.573,1.573,0,0,0-.272.333,1.659,1.659,0,0,0-.212.091.408.408,0,0,0-.181.272l-.212.151a.343.343,0,0,0-.227.091q-.106.091-.529.514,0,.06-.242.287a1.855,1.855,0,0,1-.363.287.9.9,0,0,1-.423.393l-.091.212H13.2a1.344,1.344,0,0,0-.136.166q-.076.106-.2.257a1.479,1.479,0,0,0-.151.091,1.977,1.977,0,0,1-.212.121,1.445,1.445,0,0,0-.181.423l-.393.242a.2.2,0,0,0-.091.121q-.03.091-.272.181l-.121.3a4.629,4.629,0,0,0-.333.378,2.646,2.646,0,0,0-.333.559.768.768,0,0,0-.212.665l1.451.816a.627.627,0,0,1,.181.106,2.021,2.021,0,0,0,.363.2.379.379,0,0,1,.121.106.534.534,0,0,0,.181.136.571.571,0,0,1,.181.03q.121.212.242.212l.06-.06h0a1.032,1.032,0,0,0,.333.151l.106.106a.209.209,0,0,0,.136.076.027.027,0,0,1,.03-.03,1.335,1.335,0,0,1,.272.166.908.908,0,0,0,.3.166q.03,0,0-.03A.027.027,0,0,1,14.559,21.385Zm-3.6-1.542h-.03Zm-7.71,9.373.06-.121a.123.123,0,0,0,.091.03q.03,0,.06-.06t.06-.06h.03a.027.027,0,0,0,.03.03l.03-.03q.091-.091.393-.408a1.747,1.747,0,0,1,.514-.408.123.123,0,0,1,.091-.03,10.846,10.846,0,0,1,1-1.209.424.424,0,0,1,.106-.166q.076-.076.348-.378a.4.4,0,0,1,.091-.242A1.326,1.326,0,0,0,6.4,25.92q.242-.3.393-.514A2.726,2.726,0,0,0,7,25.074a2.068,2.068,0,0,1,.242-.514q.212-.121.212-.272,0-.03.06-.03.06-.121.136-.287t.166-.378l.212-.3.121-.454a3.241,3.241,0,0,0,.272-.726q.272-.968.333-.907a.2.2,0,0,0-.091-.091,6.794,6.794,0,0,0-.423.635,2.982,2.982,0,0,1-.514.635,3.889,3.889,0,0,1-.257.484q-.166.272-.438.7l-.136.136a2.264,2.264,0,0,0-.257.408l-.272.363-.06.181q-.121.151-.257.348t-.287.438q-.121.151-.287.378t-.378.559a.336.336,0,0,1-.136.3,1.98,1.98,0,0,0-.408.6l-.03-.03-.514.7-.363.393a1.111,1.111,0,0,1-.151.227q-.091.106-.272.287a.487.487,0,0,0-.06.212Q3.16,28.974,3.251,29.216Zm5.5-7.952V21.2Zm16.026,4.384v0ZM.348,29.73v.03h0Zm27.878-3.507-.212-.121a1.819,1.819,0,0,1-.272-.03,2.2,2.2,0,0,1-.544-.212q-.06-.03-.166-.076a1.123,1.123,0,0,1-.227-.136,1.3,1.3,0,0,0-.272-.454h-.06l-.091.06a.468.468,0,0,0-.181-.272.457.457,0,0,0-.121-.272,1.236,1.236,0,0,0,0-.544.952.952,0,0,0-.242-.363l.091-.121a2.749,2.749,0,0,0,.121-.287q.06-.166.121-.378.03-.121.06-.272t.091-.363q-.03-.03-.287-.242T25.6,22.02a.244.244,0,0,0,.03-.106v-.045q0-.03-.06-.076a.131.131,0,0,1-.06-.106l.091-.106q.091-.106.121-.106a.571.571,0,0,1,.2.06.571.571,0,0,0,.2.06.232.232,0,0,0,.091-.03.232.232,0,0,1,.091-.03l.514.121a.464.464,0,0,0,.181-.06l.756-.756q.091,0,.106-.045a1.978,1.978,0,0,1,.317-.317.347.347,0,0,0,.106-.03.852.852,0,0,0,.227-.181l.091-.151a2.842,2.842,0,0,1,1.542-.6h.212q-.06.06.06.06a.232.232,0,0,0,.091-.03.232.232,0,0,1,.091-.03l.181.121h.181l.121.121a.027.027,0,0,0,.03-.03h.03q-.06,0,.121.181l-.151.484a1.657,1.657,0,0,0-.257.242q-.166.181-.227.181a.41.41,0,0,1-.136-.06.372.372,0,0,0-.166-.06.842.842,0,0,0-.181.06.649.649,0,0,0-.212.121.49.49,0,0,1-.136.076q-.106.045-.711.257.03.212-.091.242a.331.331,0,0,0-.272.151v.03a1.061,1.061,0,0,0,.7.151.147.147,0,0,0,.076-.03.186.186,0,0,1,.106-.03.087.087,0,0,1,.06.03h.06A.184.184,0,0,0,29.8,21.7a.184.184,0,0,1,.091-.045,2.108,2.108,0,0,1,.363.091,3.094,3.094,0,0,0,.333.091q.121,0,.181-.151l.121.091h.151q.03,0,.121-.091v-.06a.8.8,0,0,0-.363-.151v-.242l.151-.06a.087.087,0,0,1,.06.03h.06l.272-.091a1.151,1.151,0,0,0,.212.3q.03,0,.03-.06a.949.949,0,0,1,.257.166.519.519,0,0,0,.227.136.184.184,0,0,0,.091-.045.794.794,0,0,1,.121-.076h.151a1.787,1.787,0,0,0,.6-.121l.091.06a.29.29,0,0,1,.212-.091q.06,0,.06.03h.03l.333-.06a.416.416,0,0,1,.212-.091,2.988,2.988,0,0,1,.514-.03.027.027,0,0,0,.03-.03,1.111,1.111,0,0,1,.257-.091q.136-.03.317-.06a.752.752,0,0,1,.136-.091,1.5,1.5,0,0,1,.378-.121h.121a.827.827,0,0,0,.181-.03L36,20.719a.027.027,0,0,1,.03.03h.03q-.121,0,.423-.242a.123.123,0,0,1,.03.091.5.5,0,0,0,.03.151q-.091,0-.121.121a.509.509,0,0,0-.423.242l-.454.181h-.136a.85.85,0,0,0-.2.03l-.272.151a.087.087,0,0,1-.06-.03.087.087,0,0,0-.06-.03q.03,0-.166.091a.848.848,0,0,1-.348.091h-.03a.027.027,0,0,0-.03-.03l-.091.091a1.352,1.352,0,0,1-.317.03,3.564,3.564,0,0,0-.438.03.087.087,0,0,1-.03.06q.06,0-.015.015l-.227.045h-.242a2.623,2.623,0,0,0-.363.03q-.03,0-.091.06l.393.454v.091l.03.03a2.751,2.751,0,0,1,.181.272q.091.181,0,.212.091.3.091.212a.909.909,0,0,1-.03.151q-.03.121-.091.333a1.54,1.54,0,0,0-.121.227q-.06.136-.121.317-.091.121-.272.317t-.484.5q0,.03-.136.106a.959.959,0,0,0-.287.287q-.181.091-.438.2t-.59.257l-.317.076a4.372,4.372,0,0,1-.438.076q-.091.03-.242.091a1.073,1.073,0,0,1-.393.06,3.147,3.147,0,0,1-.6-.03Zm.272-.3q0,.03.015-.015t.045-.045l.242.06a.359.359,0,0,0,.227-.045.185.185,0,0,1,.136-.045h.121a.5.5,0,0,0,.151.03.184.184,0,0,0,.091-.045.184.184,0,0,1,.091-.045q.06,0,.06.03l.091-.06h.393l.2-.045a1.141,1.141,0,0,0,.378-.166l.242-.151a3.007,3.007,0,0,1,.423-.227,1.534,1.534,0,0,0,.877-.862.746.746,0,0,1,.045-.227.834.834,0,0,0,.045-.166.348.348,0,0,0-.121-.242,1.6,1.6,0,0,1,.015-.181q.015-.121.045-.272l-.06-.06a1.686,1.686,0,0,0-.212-.484.087.087,0,0,1-.06-.03.738.738,0,0,1-.06-.272l-.151-.121V22.08h-.333a.087.087,0,0,1-.06-.03.087.087,0,0,0-.06-.03h-.151q-.333.151-.333.181h0l-.242-.091-.151.06a.888.888,0,0,1-.333.06q-.03,0-.06-.045a.1.1,0,0,0-.091-.045.29.29,0,0,0-.121.076.29.29,0,0,1-.121.076q-.06,0-.076-.03a.048.048,0,0,0-.045-.03.232.232,0,0,0-.091.03.232.232,0,0,1-.091.03l-.212-.121q0,.242-.181.242-.121,0-.121-.212a.728.728,0,0,0-.2.076.317.317,0,0,1-.166.045h-.091l-.091-.091a.14.14,0,0,1-.151.091.175.175,0,0,1-.121-.03V22.2a.352.352,0,0,1-.091.06l-.121.06v.03a.336.336,0,0,1-.181.272q-.181.121-.514.3a.249.249,0,0,0,.015.076.249.249,0,0,1,.015.076.375.375,0,0,1-.272.393l-.272.816q.06,0,.06.03l.333,1a.087.087,0,0,0,.06-.03H27.2q.091,0,.151.2t.181.2a.027.027,0,0,0,.03-.03h.03q-.03,0,.242.121l.181.06.06-.06Q28.5,25.86,28.5,25.92Zm4.2,1.512q-.091-.03-.181-.242a.477.477,0,0,1,.03-.272q0-.03-.06-.091a.7.7,0,0,0,.106-.136q.045-.076.106-.2.03,0,.091.06a1.09,1.09,0,0,1,.363-.151q-.06-.06,0-.06a.239.239,0,0,0,.151.03.372.372,0,0,0,.136-.076.327.327,0,0,1,.166-.076H33.7q.121,0,.06-.06a1.977,1.977,0,0,1,.212-.121l.242-.121H34.3l.06-.091h.03a.848.848,0,0,0,.348-.091,1.135,1.135,0,0,1,.227-.091q.03,0,.121.091l.06-.06a.587.587,0,0,0,.272-.272.378.378,0,0,0,.242.03A1.79,1.79,0,0,1,36,25.285a.526.526,0,0,0,.212-.091q.151-.091.574-.333l-.272-.665a.123.123,0,0,0-.03-.091.168.168,0,0,0,.03-.212.275.275,0,0,0-.151-.151l.03-.03a.576.576,0,0,1-.151-.423q-.03-.06-.181,0l-.091-.121a1.141,1.141,0,0,1,.121-.242.261.261,0,0,0-.181-.091l-.121-.242a.367.367,0,0,1,.091-.181.192.192,0,0,1-.121-.151l.06-.514a.925.925,0,0,0,.06-.2A3.039,3.039,0,0,1,36,21.173l.514-.786.333-.333q.6-.574.756-.575v.03h.03a.027.027,0,0,0,.03-.03.883.883,0,0,0,.378-.181,4.25,4.25,0,0,1,.348-.272h.06q.121,0,.121-.091l.091.03.06-.06a.038.038,0,1,0,.06,0,.087.087,0,0,1,.03-.06q-.03,0,0-.03v.03q0,.03.03,0h.212l.06-.181a.087.087,0,0,0,.03.06l.136-.076a.532.532,0,0,1,.257-.076q.121,0,.136.06t.136.06h.03q-.03-.03.03-.03a.769.769,0,0,1,.408.2,1.33,1.33,0,0,1,.287.257l-.06.212-.3.091a.629.629,0,0,0-.242-.03q-.06-.212-.181-.212a.123.123,0,0,1-.091.03.268.268,0,0,0-.121.03.244.244,0,0,1-.181-.121.087.087,0,0,1-.06-.03.463.463,0,0,1-.333.212l-.181-.091a1.135,1.135,0,0,0-.227.091q-.2.091-.227.06a.841.841,0,0,1-.393.423l-.333.635q-.423.151-.423.484a.713.713,0,0,0,.091.3l-.06.181a.312.312,0,0,0-.121.06.2.2,0,0,0-.091.181q0,.181.121.121.06.03.091.363a.174.174,0,0,1-.06.121l.091.091a1.17,1.17,0,0,1,.151.212q.06.06,0,.151.03,0,.06.151H37.6a.917.917,0,0,1,.181.514.929.929,0,0,1,.242.423v.272a.123.123,0,0,0-.091.03l.091.151.242-.181a1.183,1.183,0,0,1,.272-.151q.03,0,.091.06l.076-.076a.345.345,0,0,0,.076-.136,2.824,2.824,0,0,0,.756-.514l.091.03a1.644,1.644,0,0,0,.6-.635.239.239,0,0,1,.151.03q0-.091.151-.181a.337.337,0,0,1,.151.03l.03.242q0,.03-.136.076a1.972,1.972,0,0,0-.5.378,3.708,3.708,0,0,1-.484.3l-.091.121q-.091.06-.227.166t-.317.227a1.026,1.026,0,0,0-.287.136q-.166.106-.378.257a.087.087,0,0,1,.03.06q0,.03-.06.091a.053.053,0,0,1-.06-.06l-.091.091a.205.205,0,0,0-.06.151.608.608,0,0,0,.015.166l.015.045-.091.575a.885.885,0,0,1-.363.484,2.544,2.544,0,0,0-.393.363.283.283,0,0,1-.151.181h-.06a.027.027,0,0,0-.03-.03,2.733,2.733,0,0,0-.333.272q-.272.242-.333.242H36.3a.027.027,0,0,0-.03-.03.912.912,0,0,0-.393.272l-.091-.06q0,.06-.574.091a.571.571,0,0,1-.227-.106q-.166-.106-.166-.136v-.212q.03-.091.363-.242.03,0,.06.045a.1.1,0,0,0,.091.045l.6.091h.091a.027.027,0,0,0,.03-.03q0-.03.06-.06a3.132,3.132,0,0,0,.726-.544.421.421,0,0,0,.03-.181.087.087,0,0,0,.03.06.216.216,0,0,0,.166-.242q-.015-.181.015-.212-.03-.091-.06-.06a.53.53,0,0,1,.06-.151l-.03-.151q-.091-.121-.151-.06a.027.027,0,0,0-.03.03q0,.03-.06.03a.087.087,0,0,1-.06-.03q-.03-.06-.091,0a.518.518,0,0,0-.212.227.6.6,0,0,1-.333.257l-.03-.03h-.06q.03,0-.03.06a.134.134,0,0,1-.06-.015l-.091-.045q.06.03,0,.181l-.06-.06-.181.151-.3.212q0-.03-.091-.06a.476.476,0,0,1-.181.121h-.06a.087.087,0,0,0-.06-.03l-.121.091a.327.327,0,0,0-.242.091q.151.06-.121.091a.027.027,0,0,0-.03-.03h-.03q-.272,0-.03.181l-.091.03v.015q0,.015.03.045v.015q0,.015-.03.045l.091.06v.091l-.348.06a.473.473,0,0,0-.257.121l-.181.151Zm10.129-1q.03,0-.06-.091a.411.411,0,0,1-.272.06.459.459,0,0,1-.166-.045.492.492,0,0,0-.136-.045.681.681,0,0,0-.136.03.649.649,0,0,1-.166.03,1.054,1.054,0,0,1-.181-.045.88.88,0,0,0-.212-.045q-.03-.393-.7-.3v-.06a.543.543,0,0,0-.091-.333,1.06,1.06,0,0,1-.151-.393,1.312,1.312,0,0,1-.106-.136.842.842,0,0,1-.076-.438l.06-.121q.03-.03-.06-.151a2.32,2.32,0,0,0,.121-.484q.03-.151.045-.242a.95.95,0,0,0,.015-.151q-.181-.151-.181-.272l.091-.212a.4.4,0,0,0,.212.03H40.8q.06-.091.136-.2a1.842,1.842,0,0,1,.2-.227q.181,0,.333-.333l-.03-.121a.352.352,0,0,1,.06-.091h0a.232.232,0,0,1,.091.03l.121-.121a2.573,2.573,0,0,1,.3-.242,2.1,2.1,0,0,1,.3-.3,2.018,2.018,0,0,1,.408-.242.817.817,0,0,0,.257-.181l.091.045.03.015a2.435,2.435,0,0,0,.484-.212q-.03.121.06.121h.212l.151-.091a1.267,1.267,0,0,1,.726.333.123.123,0,0,0,.091.03v.484a.174.174,0,0,1-.121-.06l-.121.272.121.181a2.033,2.033,0,0,0-.3.514v.242a.67.67,0,0,0-.212.03,2.67,2.67,0,0,1-.544.333h-.06a.087.087,0,0,0-.06-.03.744.744,0,0,0-.333.121q-.03.03-.091.106a.186.186,0,0,1-.151.076h-.03a.027.027,0,0,0-.03-.03,1.312,1.312,0,0,0-.317.106,1.873,1.873,0,0,1-.287.106h-.06a.087.087,0,0,0-.06-.03l-.091.091h-.181a.246.246,0,0,1-.181-.06h-.393a1.353,1.353,0,0,1-.076.363,2.079,2.079,0,0,0-.076.272,1.244,1.244,0,0,0,.212.423q.03.03.121.136a2.354,2.354,0,0,0,.272.257.948.948,0,0,0,.181.242.268.268,0,0,0,.121.03.5.5,0,0,1,.151.03l.091.121a.314.314,0,0,1,.272,0l.151.091h.151v-.03q.03.03,0,.03a.087.087,0,0,0,.06.03.124.124,0,0,0,.076-.045.124.124,0,0,1,.076-.045h.06a.027.027,0,0,0,.03.03.332.332,0,0,0,.212-.121.28.28,0,0,0,.181,0l.03.03v.091a1.479,1.479,0,0,0-.151.091,1.342,1.342,0,0,1-.242.121v.121q0,.03.121.03a1.1,1.1,0,0,0,.816-.3l.091.045.03.015a.053.053,0,0,0,.06-.06h.151a.775.775,0,0,0,.181-.166.335.335,0,0,1,.242-.136l.121.03.091-.242.091.06a.411.411,0,0,1,.272-.06v-.03a.087.087,0,0,1,.03-.06,1.711,1.711,0,0,0,.756-.514H46.4l.454-.363a.367.367,0,0,1,.091-.181q.03,0,.091.06l.272-.363a.373.373,0,0,0,.212-.091l.091.091-.212.272a4.4,4.4,0,0,0-.454.363q-.272.242-.6.575-.212,0-.242.121a.775.775,0,0,0-.363.272l-.091-.091q-.03.03-.166.136a2.8,2.8,0,0,1-.438.257q-.06.06-.181.166a.369.369,0,0,1-.242.106q-.06,0-.03-.03h-.03a.4.4,0,0,0-.242.091q-.121.091-.121.151-.03,0-.091-.06a2.084,2.084,0,0,1-.454.212h-.06l-.03-.03-.454.121v-.03a.087.087,0,0,0-.03-.06l-.091.121a.147.147,0,0,0-.076.03A.147.147,0,0,1,42.831,26.434Zm-.726-3.054q-.03-.091.06-.091a.027.027,0,0,1,.03.03h.06q.03,0,.136-.091t.136-.091a.232.232,0,0,1,.091.03.232.232,0,0,0,.091.03q-.06,0,.151-.212l.091.06q.7-.454.7-.786a.45.45,0,0,0-.378-.484q-.378-.091-.711-.181a.174.174,0,0,1-.121.06,1.172,1.172,0,0,1-.333.363q-.06,0-.363.3a1.315,1.315,0,0,1-.181.272q-.06.212-.106.333a.579.579,0,0,0-.045.181q.121.212.242.212h.03a.087.087,0,0,1,.06-.03A.952.952,0,0,1,42.105,23.38Zm2.6-1.27Zm3.024,1.451V23.5a.194.194,0,0,1,.181-.212A.636.636,0,0,1,47.729,23.562Z" transform="translate(8 23.16)" fill="#e4e4e4"/>
  </g>
</svg>
