<svg xmlns="http://www.w3.org/2000/svg" width="41.19" height="24.912" viewBox="0 0 41.19 24.912">
  <path id="PoiretOne_Aa" d="M12.92,6.439,24.912,31H23.793l-4.541-9.146H6.428L1.951,31H.959Zm-.1,2.207-5.98,12.28H18.868ZM42.15,16.609V31H41.126V27.418A6.724,6.724,0,0,1,38.44,30.3,7.433,7.433,0,0,1,34.6,31.352a7.354,7.354,0,0,1-5.373-2.223,7.452,7.452,0,0,1,0-10.649A7.354,7.354,0,0,1,34.6,16.257a7.685,7.685,0,0,1,3.918,1.087,5.9,5.9,0,0,1,2.606,2.878V16.609ZM28.014,23.836a6.717,6.717,0,0,0,6.636,6.62,6.223,6.223,0,0,0,4.621-1.967,6.64,6.64,0,0,0-.016-9.354,6.232,6.232,0,0,0-4.621-1.983,6.311,6.311,0,0,0-4.653,2A6.467,6.467,0,0,0,28.014,23.836Z" transform="translate(-0.959 -6.439)" fill="#707070"/>
</svg>
