<svg xmlns="http://www.w3.org/2000/svg" width="205.44" height="37.248" viewBox="0 0 205.44 37.248">
  <path id="PoiretOne" d="M3.552,10H5.136a11.693,11.693,0,0,1,8.5,3.432,10.954,10.954,0,0,1,3.5,8.088,10.564,10.564,0,0,1-3.624,8.016A11.51,11.51,0,0,1,5.52,32.9H5.136V46H3.552ZM5.136,31.552H5.52a9.667,9.667,0,0,0,7.032-2.976,9.6,9.6,0,0,0,3-7.056,9.687,9.687,0,0,0-3.048-7.1A9.644,9.644,0,0,0,5.52,11.392H5.136ZM29.328,46.528a10.623,10.623,0,0,1-7.92-3.432A11.152,11.152,0,0,1,18.1,35.1a10.756,10.756,0,0,1,3.36-7.9,11.065,11.065,0,0,1,8.088-3.336,10.986,10.986,0,0,1,8.064,3.336,10.82,10.82,0,0,1,3.336,7.92A11.183,11.183,0,0,1,37.68,43.12a10.559,10.559,0,0,1-7.92,3.408Zm10.08-11.3a9.733,9.733,0,0,0-2.9-7.032,9.354,9.354,0,0,0-6.936-2.976,9.473,9.473,0,0,0-6.984,3,9.706,9.706,0,0,0-2.952,7.032,9.547,9.547,0,0,0,2.952,6.984,9.575,9.575,0,0,0,7.008,2.952,9.34,9.34,0,0,0,6.936-2.952A9.694,9.694,0,0,0,39.408,35.224Zm8.256-10.776V46H46.128V24.448Zm-.768-5.28q-1.392,0-1.392-1.3t1.392-1.3q1.392,0,1.392,1.3T46.9,19.168Zm19.776,8.16a6.468,6.468,0,0,0-4.656-2.112,6.2,6.2,0,0,0-4.488,1.92A6.086,6.086,0,0,0,55.584,31.6V46H54.048V24.4h1.536v3.216a6.78,6.78,0,0,1,2.688-2.688,7.994,7.994,0,0,1,4.08-1.056,7.134,7.134,0,0,1,4.32,1.536Zm14.88,19.248H81.12a10.8,10.8,0,0,1-7.944-3.432,11.033,11.033,0,0,1-3.384-7.992,10.756,10.756,0,0,1,3.36-7.9,11.323,11.323,0,0,1,8.3-3.336,11.062,11.062,0,0,1,8.5,3.936L74.88,42.736a9.746,9.746,0,0,0,6,2.5,10.109,10.109,0,0,0,5.16-1.32,11.348,11.348,0,0,0,3.768-3.528v2.448A10.76,10.76,0,0,1,81.552,46.576Zm-.5-21.312a9.31,9.31,0,0,0-6.768,2.952,9.336,9.336,0,0,0-2.952,6.792,9.834,9.834,0,0,0,2.544,6.72L87.84,27.856A10.05,10.05,0,0,0,81.048,25.264Zm21.192,19.68v1.344a8.126,8.126,0,0,1-5.808-2.28,7.691,7.691,0,0,1-2.4-5.832V15.712h1.536v8.736h6.624v1.344H95.568V38.176a6.6,6.6,0,0,0,6.672,6.768Zm38.256,1.68a17.364,17.364,0,0,1-12.888-5.616A18.259,18.259,0,0,1,122.16,27.88a17.743,17.743,0,0,1,5.52-13.008,18.686,18.686,0,0,1,26.448-.024A17.8,17.8,0,0,1,159.6,27.88a18.274,18.274,0,0,1-5.424,13.152,17.428,17.428,0,0,1-12.96,5.592Zm17.52-18.648A16.644,16.644,0,0,0,153,15.832a17.007,17.007,0,0,0-24.216,0,16.6,16.6,0,0,0-5.04,12.144,16.683,16.683,0,0,0,5.04,12.168,16.922,16.922,0,0,0,24.192,0A16.683,16.683,0,0,0,158.016,27.976ZM166.176,46H164.64V24.4h1.536v4.368q2.448-4.9,8.352-4.9a9.112,9.112,0,0,1,6.768,2.784,9.3,9.3,0,0,1,2.736,6.768V46H182.5V33.424a8.085,8.085,0,0,0-2.328-5.76,7.5,7.5,0,0,0-5.64-2.448,8.12,8.12,0,0,0-5.832,2.448,7.774,7.774,0,0,0-2.52,5.76Zm34.416.576h-.432a10.8,10.8,0,0,1-7.944-3.432,11.033,11.033,0,0,1-3.384-7.992,10.756,10.756,0,0,1,3.36-7.9,11.323,11.323,0,0,1,8.3-3.336,11.062,11.062,0,0,1,8.5,3.936L193.92,42.736a9.746,9.746,0,0,0,6,2.5,10.109,10.109,0,0,0,5.16-1.32,11.348,11.348,0,0,0,3.768-3.528v2.448A10.76,10.76,0,0,1,200.592,46.576Zm-.5-21.312a9.31,9.31,0,0,0-6.768,2.952,9.336,9.336,0,0,0-2.952,6.792,9.834,9.834,0,0,0,2.544,6.72L206.88,27.856A10.05,10.05,0,0,0,200.088,25.264Z" transform="translate(-3.552 -9.376)" fill="#707070" opacity="0.8"/>
</svg>
