<svg id="rocks_1" xmlns="http://www.w3.org/2000/svg" width="437" height="410" viewBox="0 0 437 410">
  <rect id="Rectangle_293" data-name="Rectangle 293" width="437" height="410" fill="#fff"/>
  <g id="rock_tower" transform="translate(79.723 44.291)">
    <g id="Path_1" data-name="Path 1" transform="translate(0 223.61)" fill="#fff">
      <path d="M 132.3795013427734 97.73497009277344 C 114.5343017578125 97.73497009277344 97.22389984130859 96.43586730957031 80.92910003662109 93.87373352050781 C 73.09983825683594 92.6427001953125 65.54910278320312 91.11917114257812 58.48666763305664 89.34543609619141 C 51.49463653564453 87.58940124511719 44.92063522338867 85.57310485839844 38.94729995727539 83.3525390625 C 32.97976684570312 81.13413238525391 27.56363487243652 78.69400024414062 22.84940147399902 76.09993743896484 C 18.10010147094727 73.48660278320312 14.02360153198242 70.69513702392578 10.73313426971436 67.80313873291016 C 7.39766788482666 64.87153625488281 4.838768005371094 61.80883407592773 3.127501249313354 58.70003509521484 C 1.384034633636475 55.53266906738281 0.5000013709068298 52.27693557739258 0.5000013709068298 49.02326965332031 C 0.5000013709068298 45.96083450317383 1.665901303291321 43.38680267333984 4.064334869384766 41.15403366088867 C 6.289701461791992 39.08240127563477 9.56670093536377 37.31340026855469 14.08253479003906 35.74603652954102 C 22.66826820373535 32.76606750488281 34.38096618652344 30.94820213317871 47.94313430786133 28.84330177307129 C 75.77326965332031 24.52396965026855 110.4087982177734 19.14840126037598 132.703369140625 0.1924687623977661 C 137.3752288818359 -3.779764652252197 142.7937622070312 -6.778464794158936 148.8085327148438 -8.720331192016602 C 154.4250030517578 -10.53363132476807 160.6399688720703 -11.45306491851807 167.2808685302734 -11.45306491851807 C 172.5935668945312 -11.45306491851807 178.2373352050781 -10.86489772796631 184.0554046630859 -9.704897880554199 C 189.5465087890625 -8.610097885131836 195.2402038574219 -6.997498035430908 200.9784088134766 -4.911931037902832 C 211.6553649902344 -1.031297922134399 222.4891052246094 4.49413537979126 232.3083648681641 11.0670690536499 C 241.6653289794922 17.33053588867188 249.6361999511719 24.20600128173828 255.3592681884766 30.95023536682129 C 261.1815490722656 37.81133651733398 264.2590026855469 44.0609016418457 264.2590026855469 49.02326965332031 C 264.2590026855469 52.27693557739258 263.3749694824219 55.53266906738281 261.6315002441406 58.70003509521484 C 259.9202270507812 61.80883407592773 257.361328125 64.87153625488281 254.0258636474609 67.80313873291016 C 250.7353973388672 70.69513702392578 246.6589050292969 73.48660278320312 241.9096069335938 76.09993743896484 C 237.1953735351562 78.69400024414062 231.7792358398438 81.13413238525391 225.8117065429688 83.3525390625 C 219.8383636474609 85.57310485839844 213.2643737792969 87.58940124511719 206.2723388671875 89.34543609619141 C 199.2098999023438 91.11917114257812 191.6591644287109 92.6427001953125 183.8298950195312 93.87373352050781 C 167.5350952148438 96.43586730957031 150.2247009277344 97.73497009277344 132.3795013427734 97.73497009277344 Z" stroke="none"/>
      <path d="M 167.2808685302734 -10.95303726196289 C 160.6921997070312 -10.95303726196289 154.5289001464844 -10.04177474975586 148.9621276855469 -8.244503021240234 C 143.0101318359375 -6.322872161865234 137.6488647460938 -3.356105804443359 133.0272674560547 0.573394775390625 C 110.6250305175781 19.6208610534668 75.91209411621094 25.00842666625977 48.01980590820312 29.33739471435547 C 34.4815673828125 31.43856048583984 22.78956604003906 33.25322723388672 14.24647521972656 36.2183952331543 C 9.797637939453125 37.76249694824219 6.578460693359375 39.49669647216797 4.404998779296875 41.51999664306641 C 2.113800048828125 43.65296173095703 1 46.10729217529297 1 49.02326202392578 C 1 52.1916618347168 1.8631591796875 55.36626052856445 3.565521240234375 58.45889282226562 C 5.248779296875 61.51682662963867 7.7713623046875 64.53432464599609 11.06320190429688 67.42755889892578 C 14.32640075683594 70.29559326171875 18.37297058105469 73.06602478027344 23.09043884277344 75.661865234375 C 27.78326416015625 78.24412536621094 33.17689514160156 80.67396545410156 39.12150573730469 82.88386535644531 C 45.07777404785156 85.09806060791016 51.63409423828125 87.10889434814453 58.60847473144531 88.86049652099609 C 65.65640258789062 90.63056182861328 73.1922607421875 92.15109252929688 81.00677490234375 93.37979125976562 C 97.27593994140625 95.93789672851562 114.5602416992188 97.23496246337891 132.3795013427734 97.23496246337891 C 150.1987609863281 97.23496246337891 167.4830627441406 95.93789672851562 183.7522277832031 93.37979125976562 C 191.5667419433594 92.15109252929688 199.1026000976562 90.63056182861328 206.1505432128906 88.86049652099609 C 213.1249084472656 87.10889434814453 219.6812438964844 85.09806060791016 225.6374969482422 82.88386535644531 C 231.5820922851562 80.67396545410156 236.9757385253906 78.24412536621094 241.6685638427734 75.661865234375 C 246.3860321044922 73.06602478027344 250.4326019287109 70.29559326171875 253.69580078125 67.42755889892578 C 256.9876403808594 64.53432464599609 259.5102233886719 61.51682662963867 261.1934814453125 58.45889282226562 C 262.8958435058594 55.36626052856445 263.7590026855469 52.1916618347168 263.7590026855469 49.02326202392578 C 263.7590026855469 46.60676193237305 262.9945983886719 43.84429168701172 261.487060546875 40.81259536743164 C 259.9979248046875 37.81796264648438 257.8079833984375 34.60862731933594 254.97802734375 31.27372741699219 C 249.2845001220703 24.56432723999023 241.3493041992188 17.72066116333008 232.0302429199219 11.48256301879883 C 222.2439270019531 4.931694030761719 211.4473266601562 -0.5749053955078125 200.8076324462891 -4.441974639892578 C 195.0931396484375 -6.518939971923828 189.4240112304688 -8.124675750732422 183.9576416015625 -9.214542388916016 C 178.1716918945312 -10.36810684204102 172.5608367919922 -10.95303726196289 167.2808685302734 -10.95303726196289 M 167.2808685302734 -11.95305252075195 C 211.4583892822266 -11.95305252075195 264.7590026855469 28.00044631958008 264.7590026855469 49.02326202392578 C 264.7590026855469 76.20212554931641 205.4906616210938 98.23496246337891 132.3795013427734 98.23496246337891 C 59.26834106445312 98.23496246337891 0 76.20212554931641 0 49.02326202392578 C 0 21.84439468383789 89.10240173339844 36.60782623291016 132.3795013427734 -0.1884384155273438 C 142.1818237304688 -8.522846221923828 154.344482421875 -11.95305252075195 167.2808685302734 -11.95305252075195 Z" stroke="none" fill="#707070"/>
    </g>
    <g id="Path_2" data-name="Path 2" transform="translate(72.833)" fill="#fff">
      <path d="M 61.5146369934082 80.20720672607422 C 57.83249664306641 80.20720672607422 53.4185905456543 79.13466644287109 48.39554595947266 77.01940155029297 C 44.35262298583984 75.31686401367188 39.91425323486328 72.94075775146484 35.20372772216797 69.95707702636719 C 27.16806793212891 64.86721801757812 21.05288314819336 59.7082633972168 20.99205207824707 59.65675735473633 L 20.92942237854004 59.60371017456055 L 20.85305213928223 59.57343292236328 C 20.80174446105957 59.5531120300293 15.66374492645264 57.50088119506836 10.60009860992432 54.08449554443359 C 7.644360065460205 52.09027862548828 5.293360233306885 50.02943420410156 3.612437009811401 47.95923233032227 C 1.547175407409668 45.41569519042969 0.5000061988830566 42.85680389404297 0.5000061988830566 40.35360336303711 C 0.5000061988830566 35.00358963012695 2.099606275558472 29.81000328063965 5.254360198974609 24.91711044311523 C 8.314529418945312 20.17089653015137 12.700852394104 15.90481853485107 18.29148292541504 12.23737239837646 C 23.89752960205078 8.559787750244141 30.42886734008789 5.671587944030762 37.70405197143555 3.652987957000732 C 45.24434280395508 1.560818791389465 53.25539016723633 0.5000033378601074 61.5146369934082 0.5000033378601074 C 69.77388000488281 0.5000033378601074 77.78492736816406 1.560818791389465 85.32523345947266 3.652987957000732 C 92.60040283203125 5.671587944030762 99.13174438476562 8.559787750244141 104.7378082275391 12.23737239837646 C 110.3284378051758 15.90481853485107 114.7147598266602 20.17089653015137 117.7749328613281 24.91711044311523 C 120.9296798706055 29.81000328063965 122.5292816162109 35.00358963012695 122.5292816162109 40.35360336303711 C 122.5292816162109 45.70361709594727 120.9296798706055 50.89720153808594 117.7749328613281 55.79009628295898 C 114.7147598266602 60.53631210327148 110.3284378051758 64.80239105224609 104.7378082275391 68.46983337402344 C 99.13174438476562 72.14741516113281 92.60040283203125 75.03562164306641 85.32523345947266 77.05422210693359 C 77.78492736816406 79.14638519287109 69.77388000488281 80.20720672607422 61.5146369934082 80.20720672607422 Z" stroke="none"/>
      <path d="M 61.5146369934082 1 C 28.14675140380859 1 1 18.65395355224609 1 40.35360336303711 C 1 42.73705291748047 2.007850646972656 45.18783569335938 3.995567321777344 47.63787078857422 C 5.643089294433594 49.66858673095703 7.954620361328125 51.69495391845703 10.86595153808594 53.66068649291992 C 15.88505554199219 57.04956817626953 20.98635101318359 59.08842086791992 21.03710174560547 59.10853576660156 L 21.18987274169922 59.16902160644531 L 21.31523895263672 59.27522277832031 C 21.37571716308594 59.32643890380859 27.45571899414062 64.45643615722656 35.46075439453125 69.52799987792969 C 40.14955139160156 72.49858856201172 44.56475067138672 74.86318969726562 48.58371734619141 76.55610656738281 C 53.54747009277344 78.64701843261719 57.89805603027344 79.70720672607422 61.5146369934082 79.70720672607422 C 94.88252258300781 79.70720672607422 122.0292739868164 62.05325317382812 122.0292739868164 40.35360336303711 C 122.0292739868164 18.65395355224609 94.88252258300781 1 61.5146369934082 1 M 61.5146369934082 0 C 95.48822021484375 0 123.0292739868164 18.06692123413086 123.0292739868164 40.35360336303711 C 123.0292739868164 62.64028930664062 95.48822021484375 80.70720672607422 61.5146369934082 80.70720672607422 C 45.07141876220703 80.70720672607422 20.66892242431641 60.03828430175781 20.66892242431641 60.03828430175781 C 20.66892242431641 60.03828430175781 0 51.85351943969727 0 40.35360336303711 C 0 18.06692123413086 27.54103851318359 0 61.5146369934082 0 Z" stroke="none" fill="#707070"/>
    </g>
    <g id="Path_3" data-name="Path 3" transform="translate(32.48 131.008)" fill="#fff">
      <path d="M 117.7932434082031 79.11850738525391 C 108.1291122436523 79.11850738525391 96.97488403320312 79.04950714111328 86.89927673339844 78.22567749023438 C 76.13402557373047 77.34542846679688 67.55179595947266 75.68994140625 60.66387557983398 73.16458892822266 C 44.23318862915039 62.6531982421875 30.07116889953613 57.63248443603516 19.72738075256348 53.9652099609375 C 13.58271408081055 51.78667831420898 8.729280471801758 50.06597900390625 5.428780555725098 47.94067764282227 C 3.744980335235596 46.85641098022461 2.540847063064575 45.70974349975586 1.747513771057129 44.43514251708984 C 0.9080803990364075 43.08637619018555 0.5000137686729431 41.55300903320312 0.5000137686729431 39.74734497070312 C 0.5000137686729431 31.33884429931641 11.45674705505371 19.73044395446777 28.4135799407959 10.17351055145264 C 37.25691223144531 5.189377307891846 47.30504608154297 1.028244137763977 57.47161483764648 -1.860089182853699 C 68.86724853515625 -5.097555637359619 80.21018218994141 -6.73912239074707 91.18531036376953 -6.73912239074707 C 104.3572158813477 -6.73912239074707 116.6611480712891 -4.355256080627441 127.7553482055664 0.3462441563606262 C 152.9691772460938 11.03134441375732 181.7566070556641 15.80497741699219 204.8877410888672 19.64067840576172 C 219.4937438964844 22.06267738342285 232.10791015625 24.15441131591797 241.1719512939453 27.17051124572754 C 245.9297180175781 28.75367736816406 249.3750762939453 30.48381042480469 251.7049407958984 32.45977783203125 C 254.1919403076172 34.56904602050781 255.4009094238281 36.95281219482422 255.4009094238281 39.74734497070312 C 255.4009094238281 42.35267639160156 254.5539398193359 44.96317672729492 252.8835144042969 47.50634384155273 C 251.2350769042969 50.01594543457031 248.7675476074219 52.49031066894531 245.5494079589844 54.86064529418945 C 242.3698425292969 57.20261001586914 238.4300842285156 59.46337890625 233.8396148681641 61.58024597167969 C 229.281982421875 63.68191146850586 224.0457458496094 65.65891265869141 218.2763519287109 67.45631408691406 C 206.5527496337891 71.10868072509766 192.8972778320312 73.97664642333984 177.689208984375 75.98061370849609 C 161.9364166259766 78.05634307861328 145.2018737792969 79.10884094238281 127.9504470825195 79.10884094238281 C 126.2569808959961 79.10884094238281 124.5330505371094 79.11131286621094 122.8658447265625 79.11367797851562 C 121.2016143798828 79.11608123779297 119.480712890625 79.11850738525391 117.7932434082031 79.11850738525391 Z" stroke="none"/>
      <path d="M 91.18531799316406 -6.239124298095703 C 80.25637817382812 -6.239124298095703 68.95941162109375 -4.603988647460938 57.60821533203125 -1.379123687744141 C 47.47901916503906 1.498577117919922 37.46855163574219 5.64404296875 28.65904235839844 10.60911178588867 C 20.37181091308594 15.27981185913086 13.380615234375 20.51921081542969 8.441253662109375 25.76081085205078 C 6.023880004882812 28.32611083984375 4.157974243164062 30.83191108703613 2.895416259765625 33.20861053466797 C 1.637680053710938 35.57611083984375 0.9999847412109375 37.77604675292969 0.9999847412109375 39.74734497070312 C 0.9999847412109375 43.07454299926758 2.405410766601562 45.39917755126953 5.699447631835938 47.52027893066406 C 8.95111083984375 49.61411285400391 13.78034973144531 51.32627868652344 19.8944091796875 53.49394226074219 C 30.25091552734375 57.16571807861328 44.42866516113281 62.19260406494141 60.88703918457031 72.71383666992188 C 67.723388671875 75.21284484863281 76.24717712402344 76.85301971435547 86.94001770019531 77.72734069824219 C 96.99678039550781 78.54964447021484 108.1389465332031 78.61851501464844 117.7932434082031 78.61851501464844 C 119.4803771972656 78.61851501464844 121.2010803222656 78.61604309082031 122.8651428222656 78.61367797851562 C 124.5324859619141 78.61131286621094 126.2566070556641 78.60884094238281 127.9504470825195 78.60884094238281 C 145.1801147460938 78.60884094238281 161.8926696777344 77.55781555175781 177.6238708496094 75.48490905761719 C 192.8037414550781 73.48464202880859 206.4311828613281 70.62284088134766 218.1276092529297 66.97894287109375 C 223.8763732910156 65.18798065185547 229.0922088623047 63.21884536743164 233.6301879882812 61.12617874145508 C 238.1900482177734 59.02347564697266 242.1004486083984 56.78001022338867 245.2528533935547 54.45807647705078 C 248.4231109619141 52.12300872802734 250.8498077392578 49.69174575805664 252.4655456542969 47.23184204101562 C 254.0815124511719 44.77161026000977 254.90087890625 42.25347900390625 254.90087890625 39.74734497070312 C 254.90087890625 37.108642578125 253.7496795654297 34.84957885742188 251.3815155029297 32.84111022949219 C 249.1012878417969 30.9072437286377 245.7100524902344 29.20754432678223 241.0140533447266 27.64491081237793 C 231.9873199462891 24.64124488830566 219.39111328125 22.5524787902832 204.8059387207031 20.1339111328125 C 181.6487121582031 16.29391098022461 152.8287811279297 11.51487731933594 127.5602416992188 0.806610107421875 C 116.5281066894531 -3.868587493896484 104.2898101806641 -6.239124298095703 91.18531799316406 -6.239124298095703 M 91.18531799316406 -7.239112854003906 C 103.5886077880859 -7.239112854003906 116.1156311035156 -5.129482269287109 127.9504470825195 -0.1141242980957031 C 184.1212768554688 23.68991088867188 255.90087890625 17.73247909545898 255.90087890625 39.74734497070312 C 255.90087890625 61.76224517822266 198.6155090332031 79.60884094238281 127.9504470825195 79.60884094238281 C 124.5659942626953 79.60884094238281 121.1706695556641 79.61852264404297 117.7932434082031 79.61852264404297 C 96.48922729492188 79.61852264404297 75.72236633300781 79.23430633544922 60.44021606445312 73.6151123046875 C 24.63784790039062 50.69467926025391 -1.52587890625e-05 54.05704498291016 -1.52587890625e-05 39.74734497070312 C -1.52587890625e-05 22.37086486816406 44.71974182128906 -7.239112854003906 91.18531799316406 -7.239112854003906 Z" stroke="none" fill="#707070"/>
    </g>
    <g id="Path_4" data-name="Path 4" transform="matrix(0.999, -0.035, 0.035, 0.999, 31.799, 84.501)" fill="#fff">
      <path d="M 66.09523010253906 41.51625061035156 C 57.75629425048828 41.51625061035156 49.34759902954102 40.8272705078125 41.10275268554688 39.46846771240234 C 33.59718704223633 38.23151016235352 26.33590316772461 36.43281555175781 20.10386085510254 34.26679229736328 C 8.011774063110352 30.06405448913574 0.5000127553939819 24.76275062561035 0.5000127553939819 20.43168449401855 C 0.5000127553939819 19.28838157653809 0.971230149269104 18.1093807220459 1.900578022003174 16.92746734619141 C 2.844099760055542 15.72751140594482 4.258491039276123 14.52316379547119 6.104447364807129 13.34783744812012 C 9.800360679626465 10.99464130401611 15.27162170410156 8.752206802368164 21.92668724060059 6.862902641296387 C 28.84736061096191 4.898228645324707 36.81033706665039 3.346511125564575 45.59449005126953 2.250880718231201 C 54.90909957885742 1.089076399803162 64.71275329589844 0.4999894797801971 74.73314666748047 0.4999894797801971 C 78.50349426269531 0.4999894797801971 82.32723236083984 0.5855764150619507 86.09812164306641 0.7543807625770569 C 97.93579864501953 1.2842937707901 109.0796432495117 2.113598108291626 119.2201232910156 3.219272136688232 C 129.7224731445312 4.364424228668213 138.9290161132812 5.783467769622803 146.5840606689453 7.437033176422119 C 154.6306457519531 9.175185203552246 160.8683319091797 11.15368556976318 165.1238555908203 13.31757640838623 C 169.5146636962891 15.55025005340576 171.7409973144531 17.94379425048828 171.7409973144531 20.43168449401855 C 171.7409973144531 21.41040229797363 171.3631439208984 22.32081604003906 170.5858154296875 23.21496772766113 C 169.8130493164062 24.10387992858887 168.6339721679688 24.96875 167.0813446044922 25.78557586669922 C 164.1286163330078 27.33894538879395 159.8161010742188 28.75272941589355 153.8973541259766 30.10770606994629 C 142.7498321533203 32.65970611572266 127.3528823852539 34.64666366577148 111.0519027709961 36.75027084350586 C 102.8797073364258 37.80485916137695 94.42929840087891 38.89535903930664 86.04855346679688 40.11368560791016 C 79.64659881591797 41.04435729980469 72.93331909179688 41.51625061035156 66.09523010253906 41.51625061035156 Z" stroke="none"/>
      <path d="M 74.73314666748047 0.9999885559082031 C 64.73336029052734 0.9999885559082031 54.95051574707031 1.587772369384766 45.65637969970703 2.747032165527344 C 36.89738464355469 3.839534759521484 28.95951843261719 5.386142730712891 22.063232421875 7.343902587890625 C 15.45416259765625 9.220142364501953 10.02854919433594 11.44209671020508 6.372970581054688 13.76959800720215 C 2.857925415039062 16.00761985778809 0.9999847412109375 18.31133651733398 0.9999847412109375 20.43168449401855 C 0.9999847412109375 21.36344528198242 1.406234741210938 22.37957572937012 2.207427978515625 23.45183753967285 C 3.056076049804688 24.5876407623291 4.329116821289062 25.7624454498291 5.991180419921875 26.94366264343262 C 9.394073486328125 29.36203384399414 14.3309326171875 31.73101043701172 20.26799011230469 33.79450988769531 C 26.4735107421875 35.95131683349609 33.70619201660156 37.74275207519531 41.18405151367188 38.97514343261719 C 49.40212249755859 40.32950973510742 57.783447265625 41.01625061035156 66.09523010253906 41.01625061035156 C 72.90927124023438 41.01625061035156 79.59833526611328 40.54611968994141 85.97662353515625 39.61888122558594 C 94.36132049560547 38.39999008178711 102.8137512207031 37.30922698974609 110.9878845214844 36.25437927246094 C 127.2765350341797 34.15235900878906 142.6618194580078 32.16692352294922 153.7857513427734 29.62031555175781 C 159.6617584228516 28.27511978149414 163.9346160888672 26.87603378295898 166.8485412597656 25.34307670593262 C 168.3460845947266 24.55522918701172 169.4765167236328 23.72885894775391 170.2084655761719 22.88692474365234 C 170.9032287597656 22.08772850036621 171.240966796875 21.28462028503418 171.240966796875 20.43168449401855 C 171.240966796875 19.31218528747559 170.7442474365234 18.23259735107422 169.7224273681641 17.13122940063477 C 168.6567687988281 15.98259735107422 167.0333404541016 14.84944534301758 164.8972015380859 13.76327133178711 C 160.6800079345703 11.61885833740234 154.4830322265625 9.654838562011719 146.4784698486328 7.925773620605469 C 138.84033203125 6.275859832763672 129.6510772705078 4.859600067138672 119.1659088134766 3.716339111328125 C 109.0359954833984 2.611793518066406 97.90286254882812 1.783313751220703 86.07577514648438 1.253879547119141 C 82.31244659423828 1.085403442382812 78.49623107910156 0.9999885559082031 74.73314666748047 0.9999885559082031 M 74.73314666748047 -7.62939453125e-06 C 78.46906280517578 -7.62939453125e-06 82.26762390136719 0.0824127197265625 86.12049102783203 0.2548789978027344 C 132.8108367919922 2.344947814941406 172.240966796875 9.288360595703125 172.240966796875 20.43168449401855 C 172.240966796875 31.57503318786621 128.2260589599609 34.48753356933594 86.12049102783203 40.60848999023438 C 79.43356323242188 41.58058166503906 72.69452667236328 42.01624298095703 66.09523010253906 42.01624298095703 C 31.14077758789062 42.01624298095703 -1.52587890625e-05 29.80531883239746 -1.52587890625e-05 20.43168449401855 C -1.52587890625e-05 10.20790100097656 33.19598388671875 -7.62939453125e-06 74.73314666748047 -7.62939453125e-06 Z" stroke="none" fill="#707070"/>
    </g>
  </g>
</svg>
