<svg id="rocks" xmlns="http://www.w3.org/2000/svg" width="437" height="410" viewBox="0 0 437 410">
  <rect id="Rectangle_294" data-name="Rectangle 294" width="437" height="410" fill="#fff"/>
  <g id="rock_tower" transform="translate(79.723 44.291)">
    <path id="Path_1" data-name="Path 1" d="M132.38-.188c43.277-36.8,132.38,22.033,132.38,49.212S205.491,98.235,132.38,98.235,0,76.2,0,49.023,89.1,36.608,132.38-.188Z" transform="translate(0 223.61)" fill="#216396"/>
    <path id="Path_2" data-name="Path 2" d="M61.515,0c33.974,0,61.515,18.067,61.515,40.354S95.488,80.707,61.515,80.707c-16.443,0-40.846-20.669-40.846-20.669S0,51.854,0,40.354C0,18.067,27.541,0,61.515,0Z" transform="translate(72.833)" fill="#018ed3"/>
    <path id="Path_3" data-name="Path 3" d="M127.95-.114C184.121,23.69,255.9,17.732,255.9,39.747S198.616,79.609,127.95,79.609c-24.733,0-49.805.516-67.51-5.994C24.638,50.695,0,54.057,0,39.747,0,17.732,71.78-23.918,127.95-.114Z" transform="translate(32.48 131.008)" fill="#d3d3d3"/>
    <path id="Path_4" data-name="Path 4" d="M86.12.255c46.69,2.09,86.12,9.033,86.12,20.177S128.226,34.488,86.12,40.608,0,31.575,0,20.432,39.43-1.835,86.12.255Z" transform="matrix(0.999, -0.035, 0.035, 0.999, 31.799, 84.501)" fill="#ffaf53"/>
  </g>
</svg>
