<svg id="rocks_4" xmlns="http://www.w3.org/2000/svg" xmlns:xlink="http://www.w3.org/1999/xlink" width="437" height="410" viewBox="0 0 437 410">
  <defs>
    <filter id="rock_4" x="74.294" y="251.557" width="276.759" height="122.185" filterUnits="userSpaceOnUse">
      <feOffset dx="-2" dy="3" input="SourceAlpha"/>
      <feGaussianBlur stdDeviation="2" result="blur"/>
      <feFlood flood-opacity="0.161"/>
      <feComposite operator="in" in2="blur"/>
      <feComposite in="SourceGraphic"/>
    </filter>
    <filter id="rock_4-2" x="74.294" y="251.557" width="276.759" height="122.185" filterUnits="userSpaceOnUse">
      <feOffset dx="25" dy="-20" input="SourceAlpha"/>
      <feGaussianBlur stdDeviation="12.5" result="blur-2"/>
      <feFlood flood-color="#113f63" result="color"/>
      <feComposite operator="out" in="SourceGraphic" in2="blur-2"/>
      <feComposite operator="in" in="color"/>
      <feComposite operator="in" in2="SourceGraphic"/>
    </filter>
    <filter id="upper_rock_4" x="82.294" y="254.557" width="264.759" height="110.185" filterUnits="userSpaceOnUse">
      <feOffset dx="-2" dy="6" input="SourceAlpha"/>
      <feGaussianBlur stdDeviation="5" result="blur-3"/>
      <feFlood flood-color="#fff" flood-opacity="0.502" result="color-2"/>
      <feComposite operator="out" in="SourceGraphic" in2="blur-3"/>
      <feComposite operator="in" in="color-2"/>
      <feComposite operator="in" in2="SourceGraphic"/>
    </filter>
    <filter id="rock_3" x="103.488" y="164.699" width="267.901" height="98.859" filterUnits="userSpaceOnUse">
      <feOffset dx="-2" dy="3" input="SourceAlpha"/>
      <feGaussianBlur stdDeviation="2" result="blur-4"/>
      <feFlood flood-opacity="0.161"/>
      <feComposite operator="in" in2="blur-4"/>
      <feComposite in="SourceGraphic"/>
    </filter>
    <filter id="rock_3-2" x="103.488" y="164.699" width="267.901" height="98.859" filterUnits="userSpaceOnUse">
      <feOffset dx="20" dy="-16" input="SourceAlpha"/>
      <feGaussianBlur stdDeviation="12.5" result="blur-5"/>
      <feFlood flood-color="#afafaf" result="color-3"/>
      <feComposite operator="out" in="SourceGraphic" in2="blur-5"/>
      <feComposite operator="in" in="color-3"/>
      <feComposite operator="in" in2="SourceGraphic"/>
    </filter>
    <filter id="upper_rock_3" x="111.488" y="167.699" width="255.901" height="86.859" filterUnits="userSpaceOnUse">
      <feOffset dx="-2" dy="4" input="SourceAlpha"/>
      <feGaussianBlur stdDeviation="5" result="blur-6"/>
      <feFlood flood-color="#fff" flood-opacity="0.502" result="color-4"/>
      <feComposite operator="out" in="SourceGraphic" in2="blur-6"/>
      <feComposite operator="in" in="color-4"/>
      <feComposite operator="in" in2="SourceGraphic"/>
    </filter>
    <filter id="rock_2" x="103.488" y="119.75" width="185.602" height="60.003" filterUnits="userSpaceOnUse">
      <feOffset dx="-2" dy="3" input="SourceAlpha"/>
      <feGaussianBlur stdDeviation="2" result="blur-7"/>
      <feFlood flood-opacity="0.161"/>
      <feComposite operator="in" in2="blur-7"/>
      <feComposite in="SourceGraphic"/>
    </filter>
    <filter id="rock_2-2" x="103.488" y="119.75" width="185.602" height="60.003" filterUnits="userSpaceOnUse">
      <feOffset dx="20" dy="-8" input="SourceAlpha"/>
      <feGaussianBlur stdDeviation="7.5" result="blur-8"/>
      <feFlood flood-color="#ee850e" result="color-5"/>
      <feComposite operator="out" in="SourceGraphic" in2="blur-8"/>
      <feComposite operator="in" in="color-5"/>
      <feComposite operator="in" in2="SourceGraphic"/>
    </filter>
    <filter id="upper_rock_2" x="111.488" y="122.75" width="173.602" height="48.003" filterUnits="userSpaceOnUse">
      <feOffset dx="-3" dy="3" input="SourceAlpha"/>
      <feGaussianBlur stdDeviation="3" result="blur-9"/>
      <feFlood flood-color="#fff" flood-opacity="0.502" result="color-6"/>
      <feComposite operator="out" in="SourceGraphic" in2="blur-9"/>
      <feComposite operator="in" in="color-6"/>
      <feComposite operator="in" in2="SourceGraphic"/>
    </filter>
    <filter id="rock_1" x="145.159" y="40.71" width="135.029" height="92.707" filterUnits="userSpaceOnUse">
      <feOffset dx="-2" dy="3" input="SourceAlpha"/>
      <feGaussianBlur stdDeviation="2" result="blur-10"/>
      <feFlood flood-opacity="0.161"/>
      <feComposite operator="in" in2="blur-10"/>
      <feComposite in="SourceGraphic"/>
    </filter>
    <filter id="rock_1-2" x="145.159" y="40.71" width="135.029" height="92.707" filterUnits="userSpaceOnUse">
      <feOffset dx="20" dy="-16" input="SourceAlpha"/>
      <feGaussianBlur stdDeviation="7.5" result="blur-11"/>
      <feFlood flood-color="#0c6e9f" result="color-7"/>
      <feComposite operator="out" in="SourceGraphic" in2="blur-11"/>
      <feComposite operator="in" in="color-7"/>
      <feComposite operator="in" in2="SourceGraphic"/>
    </filter>
    <filter id="upper_rock_1" x="153.159" y="43.71" width="123.029" height="80.707" filterUnits="userSpaceOnUse">
      <feOffset dx="-4" dy="4" input="SourceAlpha"/>
      <feGaussianBlur stdDeviation="5" result="blur-12"/>
      <feFlood flood-color="#fff" flood-opacity="0.502" result="color-8"/>
      <feComposite operator="out" in="SourceGraphic" in2="blur-12"/>
      <feComposite operator="in" in="color-8"/>
      <feComposite operator="in" in2="SourceGraphic"/>
    </filter>
  </defs>
  <rect id="Rectangle_293" data-name="Rectangle 293" width="437" height="410" fill="#fff"/>
  <g id="logo_large" transform="translate(82.294 43.71)">
    <g id="rock_4-3" data-name="rock_4" transform="translate(0 210.847)">
      <g data-type="innerShadowGroup">
        <g transform="matrix(1, 0, 0, 1, -82.29, -254.56)" filter="url(#rock_4)">
          <path id="rock_4-4" data-name="rock_4" d="M132.38-.189c43.277-36.8,132.38,22.032,132.38,49.21s-59.268,49.21-132.38,49.21S0,76.2,0,49.022,89.1,36.606,132.38-.189Z" transform="translate(82.29 266.51)" fill="#216396"/>
        </g>
        <g transform="matrix(1, 0, 0, 1, -82.29, -254.56)" filter="url(#rock_4-2)">
          <path id="rock_4-5" data-name="rock_4" d="M132.38-.189c43.277-36.8,132.38,22.032,132.38,49.21s-59.268,49.21-132.38,49.21S0,76.2,0,49.022,89.1,36.606,132.38-.189Z" transform="translate(82.29 266.51)" fill="#fff"/>
        </g>
      </g>
      <g transform="matrix(1, 0, 0, 1, -82.29, -254.56)" filter="url(#upper_rock_4)">
        <path id="upper_rock_4-2" data-name="upper_rock_4" d="M132.38-.189c43.277-36.8,132.38,22.032,132.38,49.21s-59.268,49.21-132.38,49.21S0,76.2,0,49.022,89.1,36.606,132.38-.189Z" transform="translate(82.29 266.51)" fill="#fff"/>
      </g>
    </g>
    <g id="rock_3-3" data-name="rock_3" transform="translate(29.194 123.988)">
      <g data-type="innerShadowGroup">
        <g transform="matrix(1, 0, 0, 1, -111.49, -167.7)" filter="url(#rock_3)">
          <path id="rock_3-4" data-name="rock_3" d="M127.95-.114C184.121,23.69,255.9,17.733,255.9,39.748S198.616,79.61,127.95,79.61c-24.733,0-49.805.516-67.51-5.994C24.638,50.7,0,54.058,0,39.748,0,17.733,71.78-23.918,127.95-.114Z" transform="translate(111.49 174.94)" fill="#d3d3d3"/>
        </g>
        <g transform="matrix(1, 0, 0, 1, -111.49, -167.7)" filter="url(#rock_3-2)">
          <path id="rock_3-5" data-name="rock_3" d="M127.95-.114C184.121,23.69,255.9,17.733,255.9,39.748S198.616,79.61,127.95,79.61c-24.733,0-49.805.516-67.51-5.994C24.638,50.7,0,54.058,0,39.748,0,17.733,71.78-23.918,127.95-.114Z" transform="translate(111.49 174.94)" fill="#fff"/>
        </g>
      </g>
      <g transform="matrix(1, 0, 0, 1, -111.49, -167.7)" filter="url(#upper_rock_3)">
        <path id="upper_rock_3-2" data-name="upper_rock_3" d="M127.95-.114C184.121,23.69,255.9,17.733,255.9,39.748S198.616,79.61,127.95,79.61c-24.733,0-49.805.516-67.51-5.994C24.638,50.7,0,54.058,0,39.748,0,17.733,71.78-23.918,127.95-.114Z" transform="translate(111.49 174.94)" fill="#fff"/>
      </g>
    </g>
    <g id="rock_2-3" data-name="rock_2" transform="translate(29.194 79.04)">
      <g data-type="innerShadowGroup">
        <g transform="matrix(1, 0, 0, 1, -111.49, -122.75)" filter="url(#rock_2)">
          <path id="rock_2-4" data-name="rock_2" d="M86.12.255c46.69,2.09,86.12,9.034,86.12,20.177S128.226,34.488,86.12,40.609,0,31.576,0,20.432,39.43-1.835,86.12.255Z" transform="matrix(1, -0.03, 0.03, 1, 111.49, 128.76)" fill="#ffaf53"/>
        </g>
        <g transform="matrix(1, 0, 0, 1, -111.49, -122.75)" filter="url(#rock_2-2)">
          <path id="rock_2-5" data-name="rock_2" d="M86.12.255c46.69,2.09,86.12,9.034,86.12,20.177S128.226,34.488,86.12,40.609,0,31.576,0,20.432,39.43-1.835,86.12.255Z" transform="matrix(1, -0.03, 0.03, 1, 111.49, 128.76)" fill="#fff"/>
        </g>
      </g>
      <g transform="matrix(1, 0, 0, 1, -111.49, -122.75)" filter="url(#upper_rock_2)">
        <path id="upper_rock_2-2" data-name="upper_rock_2" d="M86.12.255c46.69,2.09,86.12,9.034,86.12,20.177S128.226,34.488,86.12,40.609,0,31.576,0,20.432,39.43-1.835,86.12.255Z" transform="matrix(1, -0.03, 0.03, 1, 111.49, 128.76)" fill="#fff"/>
      </g>
    </g>
    <g id="rock_1-3" data-name="rock_1" transform="translate(70.865)">
      <g data-type="innerShadowGroup">
        <g transform="matrix(1, 0, 0, 1, -153.16, -43.71)" filter="url(#rock_1)">
          <path id="rock_1-4" data-name="rock_1" d="M61.515,0c33.974,0,61.515,18.067,61.515,40.354S95.488,80.707,61.515,80.707c-16.443,0-40.846-20.669-40.846-20.669S0,51.854,0,40.354C0,18.067,27.541,0,61.515,0Z" transform="translate(153.16 43.71)" fill="#018ed3"/>
        </g>
        <g transform="matrix(1, 0, 0, 1, -153.16, -43.71)" filter="url(#rock_1-2)">
          <path id="rock_1-5" data-name="rock_1" d="M61.515,0c33.974,0,61.515,18.067,61.515,40.354S95.488,80.707,61.515,80.707c-16.443,0-40.846-20.669-40.846-20.669S0,51.854,0,40.354C0,18.067,27.541,0,61.515,0Z" transform="translate(153.16 43.71)" fill="#fff"/>
        </g>
      </g>
      <g transform="matrix(1, 0, 0, 1, -153.16, -43.71)" filter="url(#upper_rock_1)">
        <path id="upper_rock_1-2" data-name="upper_rock_1" d="M61.515,0c33.974,0,61.515,18.067,61.515,40.354S95.488,80.707,61.515,80.707c-16.443,0-40.846-20.669-40.846-20.669S0,51.854,0,40.354C0,18.067,27.541,0,61.515,0Z" transform="translate(153.16 43.71)" fill="#fff"/>
      </g>
    </g>
  </g>
</svg>
